<?xml version="1.0" encoding="utf-8"?>
<!-- Generator: Adobe Illustrator 21.0.2, SVG Export Plug-In . SVG Version: 6.00 Build 0)  -->
<!DOCTYPE svg PUBLIC "-//W3C//DTD SVG 1.1//EN" "http://www.w3.org/Graphics/SVG/1.1/DTD/svg11.dtd" [
	<!ENTITY st0 "fill:#007C37;">
	<!ENTITY st1 "fill:#FFFFFF;">
	<!ENTITY st2 "fill:#A4CD73;">
	<!ENTITY st3 "fill:#FFFFFF;stroke:#FFFFFF;stroke-width:0.5;stroke-miterlimit:10;">
]>
<svg version="1.1" xmlns="http://www.w3.org/2000/svg" xmlns:xlink="http://www.w3.org/1999/xlink" x="0px" y="0px"
	 viewBox="0 0 167.24 249.45" style="enable-background:new 0 0 167.24 249.45;" xml:space="preserve">
<g id="Pantone_356_CP_bg_1_">
	<rect id="Pantone_356_CP_bg" style="&st0;" width="167px" height="249px" />
</g>
<g id="Dawn_Mashinter_-_Front_Business_Card_Design">
	<g id="MUSKOKA__x26__ALMAGUIN">
		<path style="&st1;" d="M39.823,214.448l-0.243-4.395l-1.606,4.324h-0.637l-1.525-4.385l-0.192,4.455h-1.132l0.384-7.151h0.919
			l1.859,5.081l2.01-5.081h0.889l0.394,7.151H39.823z"/>
		<path style="&st1;" d="M44.458,214.539c-1.646,0-2.404-1.202-2.394-3.424c0-1.192,0.01-2.627,0.01-3.818h1.162l0.01,3.535
			c0,1.758,0.384,2.495,1.212,2.495c0.768,0,1.172-0.828,1.172-2.525v-3.505h1.182v3.747
			C46.812,213.357,46.084,214.539,44.458,214.539z"/>
		<path style="&st1;" d="M50.063,214.56c-0.768,0-1.263-0.293-2.05-0.939l0.374-1.051c0.748,0.535,1.222,0.839,1.606,0.839
			c0.525,0,1.162-0.304,1.162-1.092c0-0.777-0.808-0.858-1.141-0.97c-0.869-0.182-2.021-0.484-2.021-2.03
			c0-1.737,1.333-2.151,2.111-2.151c0.707,0,1.354,0.313,2.061,0.949l-0.354,0.97c-0.606-0.515-1.182-0.777-1.707-0.777
			c-0.818,0-1.021,0.465-1.021,0.97c0,0.475,0.394,0.677,0.728,0.788c0.748,0.182,2.444,0.101,2.444,2.252
			C52.255,214.125,50.902,214.56,50.063,214.56z"/>
		<path style="&st1;" d="M56.548,214.448l-1.364-3.384l-0.525,0.99v2.394h-1.202l0.01-7.151h1.192v3.131l1.878-3.131h1.223v0.151
			l-1.788,2.687c0.626,1.374,1.283,2.778,1.889,4.151v0.162H56.548z"/>
		<path style="&st1;" d="M61.205,214.61c-1.465,0-2.687-1.385-2.687-3.738c0-2.404,1.162-3.747,2.687-3.747
			c1.465,0,2.687,1.435,2.687,3.768C63.892,213.246,62.679,214.61,61.205,214.61z M61.205,208.307c-1.131,0-1.556,1.151-1.556,2.586
			c0,1.394,0.455,2.535,1.556,2.535s1.556-1.121,1.556-2.535C62.76,209.469,62.295,208.307,61.205,208.307z"/>
		<path style="&st1;" d="M68.143,214.448l-1.364-3.384l-0.525,0.99v2.394h-1.202l0.01-7.151h1.192v3.131l1.878-3.131h1.223v0.151
			l-1.788,2.687c0.626,1.374,1.283,2.778,1.889,4.151v0.162H68.143z"/>
		<path style="&st1;" d="M74.345,214.448l-0.364-1.516h-2.142l-0.404,1.516h-1.172l2.192-7.182h0.99l2.101,7.182H74.345z
			 M72.92,209.034l-0.667,2.788h1.323L72.92,209.034z"/>
		<path style="&st1;" d="M83.041,214.448l-0.485-0.879c-0.333,0.565-0.828,0.979-1.424,0.979c-0.757,0-1.929-0.343-1.929-2.07
			c0-1.07,0.606-1.839,1.131-2.232c-0.333-0.414-0.485-1.03-0.485-1.525c0-1.01,0.656-1.546,1.565-1.546
			c0.97,0,1.415,0.627,1.415,1.586c0,0.748-0.545,1.435-1,1.809l0.747,1.323c0.223-0.363,0.303-0.808,0.344-1.051l0.768,0.323
			c0,0.304-0.202,0.98-0.525,1.566c0.323,0.475,0.616,1.02,0.93,1.505v0.212H83.041z M80.96,211.155
			c-0.404,0.293-0.667,0.697-0.667,1.232c0,0.858,0.435,1.131,0.889,1.131c0.202,0,0.525-0.263,0.768-0.687L80.96,211.155z
			 M81.435,208.095c-0.313,0-0.525,0.202-0.525,0.677c0,0.323,0.172,0.667,0.313,0.898l0.081,0.132
			c0.232-0.223,0.525-0.667,0.525-1.041C81.829,208.357,81.748,208.095,81.435,208.095z"/>
		<path style="&st1;" d="M91.746,214.448l-0.363-1.516h-2.142l-0.404,1.516h-1.172l2.192-7.182h0.989l2.102,7.182H91.746z
			 M90.322,209.034l-0.667,2.788h1.323L90.322,209.034z"/>
		<path style="&st1;" d="M94.049,214.448v-7.151h1.192v5.979h2.808v1.172H94.049z"/>
		<path style="&st1;" d="M104.492,214.448l-0.242-4.395l-1.606,4.324h-0.637l-1.525-4.385l-0.191,4.455h-1.132l0.384-7.151h0.92
			l1.858,5.081l2.01-5.081h0.889l0.395,7.151H104.492z"/>
		<path style="&st1;" d="M110.553,214.448l-0.363-1.516h-2.142l-0.404,1.516h-1.172l2.192-7.182h0.989l2.102,7.182H110.553z
			 M109.129,209.034l-0.667,2.788h1.323L109.129,209.034z"/>
		<path style="&st1;" d="M117.391,213.378c-0.344,0.484-1.172,1.171-2.354,1.171c-1.212,0-2.565-1.293-2.565-3.707
			c0-2.394,1.384-3.667,2.565-3.667c0.252,0,0.758,0.041,1.191,0.223c0.455,0.202,1.021,0.656,1.192,0.93l-0.535,0.909
			c-0.556-0.586-1.081-0.899-1.849-0.899c-0.839,0-1.444,0.97-1.444,2.475c0,1.576,0.636,2.546,1.444,2.546
			c0.465,0,0.96-0.272,1.283-0.626v-1.202h-1.476v-1.081h2.546V213.378z"/>
		<path style="&st1;" d="M121.146,214.539c-1.646,0-2.403-1.202-2.394-3.424c0-1.192,0.01-2.627,0.01-3.818h1.162l0.01,3.535
			c0,1.758,0.384,2.495,1.212,2.495c0.769,0,1.172-0.828,1.172-2.525v-3.505h1.183v3.747
			C123.501,213.357,122.773,214.539,121.146,214.539z"/>
		<path style="&st1;" d="M124.883,214.448v-7.151h1.202v7.151H124.883z"/>
		<path style="&st1;" d="M131.277,214.448l-2.586-4.395c0,1.586-0.011,2.818-0.011,4.395h-1.151v-7.151h0.768l2.546,4.252v-4.252
			h1.142v7.151H131.277z"/>
	</g>
	<rect id="bottom_green_line" x="33.261" y="201.771" style="&st2;" width="100.718" height="1"/>
	<g id="Luxury_Real_Estate">
		<path style="&st1;" d="M46.535,194.537c-0.088,0.474-0.319,1.563-0.407,1.859h-5.357v-0.385c0.957-0.077,1.067-0.144,1.067-1.078
			v-4.214c0-0.946-0.11-1.013-0.946-1.089v-0.386h3.355v0.386c-0.836,0.076-0.936,0.143-0.936,1.089v4.302
			c0,0.517,0.044,0.704,0.264,0.803c0.198,0.077,0.484,0.1,0.825,0.1c0.473,0,0.869-0.077,1.133-0.374
			c0.198-0.221,0.407-0.572,0.605-1.134L46.535,194.537z"/>
		<path style="&st1;" d="M52.432,196.133c-0.319,0.044-0.627,0.099-0.99,0.176c-0.352,0.065-0.693,0.143-1.023,0.22l-0.099-0.077
			v-0.66c-0.187,0.154-0.308,0.265-0.55,0.407c-0.308,0.209-0.605,0.33-0.946,0.33c-0.913,0-1.441-0.594-1.441-1.563v-2.277
			c0-0.506-0.066-0.561-0.352-0.638l-0.253-0.077v-0.318c0.275-0.012,0.616-0.045,0.99-0.077c0.363-0.033,0.759-0.077,1.056-0.121
			c-0.033,0.462-0.033,1.022-0.033,1.661v1.595c0,0.716,0.374,0.969,0.748,0.969c0.297,0,0.539-0.066,0.781-0.309V192.7
			c0-0.518-0.055-0.583-0.352-0.649l-0.341-0.077v-0.318c0.319-0.012,0.704-0.045,1.101-0.077c0.385-0.033,0.748-0.077,1.001-0.121
			v3.575c0,0.572,0.055,0.683,0.462,0.727l0.242,0.021V196.133z"/>
		<path style="&st1;" d="M55.269,196.396v-0.352c0.418-0.066,0.462-0.188,0.264-0.518l-0.55-0.957
			c-0.22,0.308-0.407,0.671-0.572,0.935c-0.187,0.309-0.121,0.44,0.319,0.54v0.352h-2.079v-0.352
			c0.594-0.121,0.814-0.242,1.188-0.693c0.275-0.309,0.561-0.704,0.891-1.145l-0.968-1.595c-0.308-0.518-0.418-0.639-1.012-0.727
			v-0.352h2.597v0.352c-0.374,0.088-0.429,0.188-0.275,0.429l0.517,0.858c0.231-0.341,0.407-0.638,0.539-0.858
			c0.154-0.253,0.099-0.341-0.33-0.429v-0.352h2.013v0.352c-0.605,0.099-0.715,0.154-1.111,0.539
			c-0.231,0.253-0.495,0.616-0.869,1.111l1.067,1.705c0.363,0.572,0.627,0.737,1.111,0.804v0.352H55.269z"/>
		<path style="&st1;" d="M63.838,196.133c-0.319,0.044-0.627,0.099-0.99,0.176c-0.352,0.065-0.693,0.143-1.023,0.22l-0.099-0.077
			v-0.66c-0.187,0.154-0.308,0.265-0.55,0.407c-0.308,0.209-0.605,0.33-0.946,0.33c-0.913,0-1.441-0.594-1.441-1.563v-2.277
			c0-0.506-0.066-0.561-0.352-0.638l-0.253-0.077v-0.318c0.275-0.012,0.616-0.045,0.99-0.077c0.363-0.033,0.759-0.077,1.056-0.121
			c-0.033,0.462-0.033,1.022-0.033,1.661v1.595c0,0.716,0.374,0.969,0.748,0.969c0.297,0,0.539-0.066,0.781-0.309V192.7
			c0-0.518-0.055-0.583-0.352-0.649l-0.341-0.077v-0.318c0.319-0.012,0.704-0.045,1.101-0.077c0.385-0.033,0.748-0.077,1.001-0.121
			v3.575c0,0.572,0.055,0.683,0.462,0.727l0.242,0.021V196.133z"/>
		<path style="&st1;" d="M66.423,192.557c0.407-0.682,0.825-1.155,1.243-1.155c0.429,0,0.737,0.309,0.737,0.683
			c0,0.396-0.253,0.704-0.539,0.814c-0.154,0.055-0.264,0.021-0.341-0.045c-0.187-0.153-0.33-0.23-0.506-0.23
			c-0.209,0-0.429,0.143-0.616,0.572v2.057c0,0.672,0.055,0.727,0.902,0.793v0.352h-3.014v-0.352
			c0.605-0.066,0.704-0.121,0.704-0.793v-2.409c0-0.561-0.077-0.604-0.594-0.726v-0.309c0.66-0.088,1.32-0.209,2.002-0.418v1.166
			H66.423z"/>
		<path style="&st1;" d="M74.101,191.886c-0.528,0.088-0.638,0.198-0.913,0.792c-0.275,0.583-0.638,1.496-1.276,3.025
			c-0.748,1.782-0.968,2.476-1.155,3.092c-0.077,0.242-0.231,0.297-0.407,0.297c-0.308,0-0.781-0.308-0.781-0.704
			c0-0.176,0.077-0.275,0.308-0.418c0.429-0.231,0.682-0.44,0.891-0.792c0.11-0.198,0.176-0.33,0.209-0.451
			c0.055-0.176,0.033-0.341-0.033-0.528c-0.572-1.584-1.177-3.146-1.386-3.63c-0.198-0.474-0.33-0.605-0.847-0.683v-0.352h2.717
			v0.352c-0.473,0.099-0.55,0.154-0.429,0.518l0.825,2.431c0.253-0.616,0.627-1.716,0.825-2.343
			c0.121-0.363,0.011-0.507-0.528-0.605v-0.352h1.98V191.886z"/>
		<path style="&st1;" d="M83.483,196.495c-0.066,0-0.187-0.011-0.33-0.011c-1.386-0.065-1.805-0.374-2.255-1.067
			c-0.286-0.451-0.583-1.045-0.902-1.628c-0.176-0.33-0.374-0.473-0.726-0.473h-0.209v1.605c0,0.913,0.099,1.013,0.935,1.09v0.385
			h-3.322v-0.385c0.825-0.077,0.946-0.177,0.946-1.09v-4.225c0-0.88-0.099-0.99-0.902-1.066v-0.386h3.091
			c0.968,0,1.518,0.11,1.969,0.407c0.44,0.297,0.737,0.781,0.737,1.463c0,0.969-0.638,1.497-1.375,1.794
			c0.165,0.33,0.572,1.056,0.902,1.563c0.385,0.615,0.627,0.968,0.836,1.198c0.242,0.254,0.429,0.386,0.671,0.474L83.483,196.495z
			 M79.347,192.876c0.462,0,0.836-0.077,1.078-0.286c0.374-0.308,0.528-0.748,0.528-1.31c0-1.177-0.682-1.595-1.298-1.595
			c-0.275,0-0.429,0.044-0.495,0.11c-0.077,0.065-0.099,0.176-0.099,0.406v2.674H79.347z"/>
		<path style="&st1;" d="M88.06,195.308c-0.66,1.001-1.519,1.221-1.98,1.221c-1.474,0-2.277-1.089-2.277-2.354
			c0-0.836,0.352-1.529,0.814-1.991c0.485-0.483,1.089-0.781,1.684-0.781h0.011c1.022,0,1.793,0.869,1.793,1.771
			c-0.011,0.22-0.077,0.363-0.319,0.396c-0.197,0.033-1.551,0.132-2.629,0.176c0.044,1.177,0.693,1.771,1.485,1.771
			c0.429,0,0.847-0.144,1.232-0.474L88.06,195.308z M85.199,193.229c0.462-0.012,0.869-0.022,1.32-0.033
			c0.165,0,0.23-0.033,0.23-0.221c0.012-0.561-0.241-1.133-0.671-1.133C85.65,191.842,85.276,192.359,85.199,193.229z"/>
		<path style="&st1;" d="M92.283,196.528c-0.297,0-0.527-0.099-0.671-0.23c-0.154-0.133-0.23-0.275-0.275-0.407
			c-0.418,0.274-0.935,0.638-1.154,0.638c-0.925,0-1.485-0.726-1.485-1.408c0-0.572,0.264-0.836,0.836-1.056
			c0.649-0.242,1.496-0.507,1.749-0.727v-0.33c0-0.693-0.264-1.078-0.66-1.078c-0.154,0-0.274,0.066-0.374,0.198
			c-0.121,0.154-0.22,0.418-0.308,0.759c-0.077,0.286-0.242,0.374-0.462,0.374c-0.298,0-0.693-0.264-0.693-0.55
			c0-0.198,0.143-0.341,0.385-0.528c0.418-0.286,1.199-0.66,1.826-0.781c0.451,0,0.781,0.1,1.078,0.319
			c0.474,0.363,0.572,0.836,0.572,1.452v1.815c0,0.517,0.165,0.649,0.353,0.649c0.132,0,0.253-0.033,0.374-0.088l0.109,0.352
			L92.283,196.528z M91.282,193.768c-0.198,0.109-0.374,0.22-0.604,0.341c-0.342,0.176-0.518,0.374-0.518,0.759
			c0,0.605,0.407,0.836,0.66,0.836c0.165,0,0.286-0.044,0.462-0.176V193.768z"/>
		<path style="&st1;" d="M93.657,196.396v-0.352c0.66-0.1,0.716-0.144,0.716-0.858v-5.028c0-0.671-0.056-0.692-0.66-0.77v-0.33
			c0.627-0.077,1.441-0.231,2.068-0.396v6.524c0,0.737,0.055,0.792,0.736,0.858v0.352H93.657z"/>
		<path style="&st1;" d="M105.274,194.57c-0.077,0.495-0.297,1.496-0.385,1.826h-5.611v-0.385c0.936-0.077,1.045-0.144,1.045-1.078
			v-4.225c0-0.957-0.109-1.013-0.891-1.078v-0.386h5.182c0.011,0.198,0.066,0.969,0.11,1.65l-0.407,0.056
			c-0.1-0.386-0.242-0.749-0.44-0.946c-0.187-0.198-0.483-0.275-1.1-0.275h-0.528c-0.407,0-0.451,0.022-0.451,0.385v2.333h0.737
			c0.924,0,1.078-0.056,1.221-0.825h0.396v2.211h-0.396c-0.143-0.792-0.286-0.836-1.221-0.836h-0.737v1.914
			c0,0.528,0.044,0.792,0.264,0.902c0.198,0.088,0.572,0.11,0.99,0.11c0.572,0,0.957-0.077,1.21-0.353
			c0.221-0.242,0.419-0.594,0.616-1.078L105.274,194.57z"/>
		<path style="&st1;" d="M108.86,192.953c-0.298-0.671-0.649-1.122-1.167-1.122c-0.285,0-0.561,0.242-0.561,0.594
			c0,0.341,0.253,0.594,0.814,0.848c0.891,0.385,1.484,0.77,1.484,1.628c0,1.089-1.045,1.628-1.969,1.628
			c-0.583,0-1.155-0.209-1.387-0.374c-0.065-0.176-0.165-0.946-0.165-1.474l0.319-0.033c0.242,0.692,0.759,1.452,1.431,1.452
			c0.352,0,0.594-0.265,0.594-0.595c0-0.318-0.154-0.594-0.825-0.913c-0.517-0.253-1.408-0.682-1.408-1.628
			c0-0.858,0.693-1.551,1.849-1.563c0.506,0,0.803,0.089,1.056,0.198c0.11,0.253,0.242,1.034,0.265,1.254L108.86,192.953z"/>
		<path style="&st1;" d="M112.358,196.407c-0.188,0.077-0.363,0.121-0.44,0.121c-0.847,0-1.354-0.396-1.354-1.386v-3.081h-0.692
			l-0.056-0.132l0.309-0.396h0.439v-0.804l1.255-0.858l0.153,0.077v1.585h1.078c0.121,0.121,0.11,0.439-0.065,0.527h-1.013v2.718
			c0,0.858,0.396,0.957,0.616,0.957c0.188,0,0.363-0.044,0.562-0.132l0.109,0.385L112.358,196.407z"/>
		<path style="&st1;" d="M117.286,196.528c-0.298,0-0.528-0.099-0.672-0.23c-0.153-0.133-0.23-0.275-0.274-0.407
			c-0.418,0.274-0.936,0.638-1.155,0.638c-0.924,0-1.485-0.726-1.485-1.408c0-0.572,0.264-0.836,0.836-1.056
			c0.649-0.242,1.496-0.507,1.749-0.727v-0.33c0-0.693-0.264-1.078-0.66-1.078c-0.153,0-0.274,0.066-0.374,0.198
			c-0.12,0.154-0.22,0.418-0.308,0.759c-0.077,0.286-0.242,0.374-0.462,0.374c-0.297,0-0.693-0.264-0.693-0.55
			c0-0.198,0.144-0.341,0.385-0.528c0.418-0.286,1.199-0.66,1.826-0.781c0.451,0,0.781,0.1,1.079,0.319
			c0.473,0.363,0.571,0.836,0.571,1.452v1.815c0,0.517,0.165,0.649,0.353,0.649c0.132,0,0.253-0.033,0.374-0.088l0.11,0.352
			L117.286,196.528z M116.284,193.768c-0.197,0.109-0.374,0.22-0.604,0.341c-0.341,0.176-0.518,0.374-0.518,0.759
			c0,0.605,0.407,0.836,0.66,0.836c0.165,0,0.286-0.044,0.462-0.176V193.768z"/>
		<path style="&st1;" d="M121.048,196.407c-0.188,0.077-0.363,0.121-0.44,0.121c-0.847,0-1.354-0.396-1.354-1.386v-3.081h-0.692
			l-0.056-0.132l0.309-0.396h0.439v-0.804l1.255-0.858l0.153,0.077v1.585h1.078c0.121,0.121,0.11,0.439-0.065,0.527h-1.013v2.718
			c0,0.858,0.396,0.957,0.616,0.957c0.188,0,0.363-0.044,0.562-0.132l0.109,0.385L121.048,196.407z"/>
		<path style="&st1;" d="M126.515,195.308c-0.66,1.001-1.519,1.221-1.98,1.221c-1.475,0-2.277-1.089-2.277-2.354
			c0-0.836,0.352-1.529,0.814-1.991c0.483-0.483,1.089-0.781,1.683-0.781h0.012c1.022,0,1.793,0.869,1.793,1.771
			c-0.011,0.22-0.077,0.363-0.319,0.396c-0.198,0.033-1.551,0.132-2.629,0.176c0.044,1.177,0.692,1.771,1.484,1.771
			c0.43,0,0.848-0.144,1.232-0.474L126.515,195.308z M123.654,193.229c0.462-0.012,0.869-0.022,1.32-0.033
			c0.165,0,0.23-0.033,0.23-0.221c0.011-0.561-0.242-1.133-0.671-1.133S123.731,192.359,123.654,193.229z"/>
	</g>
	<g id="LIST_LOCAL._MARKET_GLOBAL.">
		<path style="&st1;" d="M20.222,126.792V119.5h1.176v6.097h2.77v1.195H20.222z"/>
		<path style="&st1;" d="M25.471,126.792V119.5h1.186v7.292H25.471z"/>
		<path style="&st1;" d="M29.994,126.905c-0.757,0-1.245-0.299-2.022-0.958l0.369-1.071c0.737,0.546,1.206,0.854,1.584,0.854
			c0.518,0,1.146-0.309,1.146-1.112c0-0.793-0.797-0.875-1.126-0.989c-0.857-0.185-1.993-0.494-1.993-2.07
			c0-1.771,1.315-2.194,2.083-2.194c0.698,0,1.335,0.319,2.033,0.968l-0.349,0.989c-0.598-0.525-1.166-0.793-1.684-0.793
			c-0.807,0-1.006,0.474-1.006,0.989c0,0.484,0.389,0.69,0.717,0.803c0.737,0.186,2.412,0.103,2.412,2.297
			C32.156,126.463,30.821,126.905,29.994,126.905z"/>
		<path style="&st1;" d="M35.891,120.643v6.149h-1.196v-6.149h-1.713V119.5h4.623v1.143H35.891z"/>
		<path style="&st1;" d="M41.258,126.792V119.5h1.176v6.097h2.77v1.195H41.258z"/>
		<path style="&st1;" d="M48.64,126.957c-1.445,0-2.65-1.411-2.65-3.811c0-2.452,1.146-3.821,2.65-3.821
			c1.445,0,2.65,1.462,2.65,3.842C51.29,125.566,50.095,126.957,48.64,126.957z M48.64,120.53c-1.116,0-1.534,1.174-1.534,2.637
			c0,1.421,0.448,2.585,1.534,2.585s1.535-1.144,1.535-2.585C50.174,121.714,49.716,120.53,48.64,120.53z"/>
		<path style="&st1;" d="M54.795,126.905c-1.315,0-2.491-1.298-2.491-3.78c0-2.307,1.275-3.76,2.471-3.76
			c0.957,0,1.644,0.484,2.132,1.133l-0.508,1.071c-0.478-0.597-0.907-1.009-1.594-1.009c-0.727,0-1.345,0.999-1.345,2.585
			c0,1.606,0.628,2.595,1.345,2.595c0.688,0,1.146-0.525,1.625-1.092l0.538,0.979C56.549,126.153,55.872,126.905,54.795,126.905z"/>
		<path style="&st1;" d="M61.848,126.792l-0.359-1.545h-2.112l-0.398,1.545h-1.156l2.162-7.323h0.977l2.072,7.323H61.848z
			 M60.443,121.271l-0.658,2.843h1.305L60.443,121.271z"/>
		<path style="&st1;" d="M64.118,126.792V119.5h1.176v6.097h2.77v1.195H64.118z"/>
		<path style="&st1;" d="M69.815,126.885c-0.319,0-0.588-0.319-0.588-0.752c0-0.443,0.269-0.762,0.588-0.762
			s0.598,0.319,0.598,0.762C70.413,126.565,70.134,126.885,69.815,126.885z"/>
		<path style="&st1;" d="M79.369,126.792l-0.239-4.48l-1.584,4.408h-0.628l-1.504-4.47l-0.189,4.542h-1.116l0.378-7.292h0.907
			l1.833,5.181l1.983-5.181h0.876l0.389,7.292H79.369z"/>
		<path style="&st1;" d="M85.345,126.792l-0.359-1.545h-2.112l-0.398,1.545h-1.156l2.162-7.323h0.977l2.072,7.323H85.345z
			 M83.939,121.271l-0.657,2.843h1.305L83.939,121.271z"/>
		<path style="&st1;" d="M90.663,126.792l-1.524-2.904H88.78v2.904h-1.156c0-2.431-0.01-4.861-0.01-7.292h2.411
			c1.046,0,1.704,0.813,1.704,2.152c0,1.123-0.668,1.998-1.346,2.153l1.455,2.833v0.154H90.663z M89.846,120.643H88.78v2.07h1.056
			c0.509,0,0.758-0.474,0.758-1.051C90.594,121.065,90.354,120.643,89.846,120.643z"/>
		<path style="&st1;" d="M96.111,126.792l-1.345-3.45l-0.519,1.009v2.441h-1.186l0.01-7.292h1.176v3.193l1.854-3.193h1.205v0.154
			l-1.764,2.74c0.618,1.401,1.266,2.833,1.863,4.233v0.165H96.111z"/>
		<path style="&st1;" d="M98.471,126.792l0.021-7.292h3.716v1.133h-2.54c0,0.649-0.011,1.308-0.011,1.957h2.152v1.112h-2.142v1.937
			h2.62v1.153H98.471z"/>
		<path style="&st1;" d="M106.313,120.643v6.149h-1.196v-6.149h-1.714V119.5h4.624v1.143H106.313z"/>
		<path style="&st1;" d="M116.402,125.7c-0.339,0.495-1.155,1.195-2.321,1.195c-1.195,0-2.531-1.319-2.531-3.78
			c0-2.441,1.365-3.739,2.531-3.739c0.249,0,0.747,0.042,1.176,0.227c0.448,0.206,1.007,0.669,1.176,0.947l-0.528,0.927
			c-0.548-0.598-1.065-0.917-1.823-0.917c-0.827,0-1.425,0.989-1.425,2.523c0,1.607,0.628,2.596,1.425,2.596
			c0.458,0,0.946-0.278,1.266-0.639v-1.226h-1.455v-1.102h2.511V125.7z"/>
		<path style="&st1;" d="M117.745,126.792V119.5h1.176v6.097h2.771v1.195H117.745z"/>
		<path style="&st1;" d="M125.126,126.957c-1.444,0-2.65-1.411-2.65-3.811c0-2.452,1.146-3.821,2.65-3.821
			c1.445,0,2.65,1.462,2.65,3.842C127.776,125.566,126.581,126.957,125.126,126.957z M125.126,120.53
			c-1.116,0-1.534,1.174-1.534,2.637c0,1.421,0.448,2.585,1.534,2.585s1.534-1.144,1.534-2.585
			C126.66,121.714,126.202,120.53,125.126,120.53z"/>
		<path style="&st1;" d="M131.271,126.792h-2.411V119.5h2.332c1.046,0,1.674,0.783,1.674,2.039c0,0.772-0.26,1.267-0.568,1.545
			v0.021c0.339,0.268,0.628,0.917,0.628,1.659C132.926,126.112,132.148,126.792,131.271,126.792z M131.053,120.602h-1.047v2.019
			h0.987c0.518,0,0.856-0.412,0.856-0.999C131.85,121.024,131.57,120.602,131.053,120.602z M131.043,123.692h-1.037v1.998h0.987
			c0.518,0,0.837-0.381,0.837-0.968C131.83,124.145,131.541,123.692,131.043,123.692z"/>
		<path style="&st1;" d="M137.985,126.792l-0.358-1.545h-2.112l-0.399,1.545h-1.155l2.162-7.323h0.977l2.072,7.323H137.985z
			 M136.58,121.271l-0.657,2.843h1.305L136.58,121.271z"/>
		<path style="&st1;" d="M140.255,126.792V119.5h1.176v6.097h2.771v1.195H140.255z"/>
		<path style="&st1;" d="M145.952,126.885c-0.318,0-0.588-0.319-0.588-0.752c0-0.443,0.27-0.762,0.588-0.762
			c0.319,0,0.598,0.319,0.598,0.762C146.55,126.565,146.271,126.885,145.952,126.885z"/>
	</g>
	<rect id="Green_Line" x="50.479" y="67.129" style="&st2;" width="66.933" height="1"/>
	<g id="FINDING_MY_WAY_HOME">
		<path style="&st1;" d="M51.425,61.587v1.164h1.245v0.639h-1.245c0,0.405-0.006,1.204-0.006,1.609H50.69v-4.041h2.272v0.628H51.425
			z"/>
		<path style="&st1;" d="M53.75,65v-4.041h0.741V65H53.75z"/>
		<path style="&st1;" d="M57.689,65l-1.594-2.482c0,0.896-0.006,1.592-0.006,2.482h-0.71v-4.041h0.474l1.568,2.403v-2.403h0.704V65
			H57.689z"/>
		<path style="&st1;" d="M60.23,65h-1.22v-4.041h1.351c0.934,0,1.519,0.822,1.519,2.026C61.88,64.229,61.233,65,60.23,65z
			 M60.187,61.576h-0.442v2.802h0.43c0.641,0,1.027-0.537,1.027-1.381C61.202,62.124,60.934,61.576,60.187,61.576z"/>
		<path style="&st1;" d="M62.679,65v-4.041h0.741V65H62.679z"/>
		<path style="&st1;" d="M66.618,65l-1.594-2.482c0,0.896-0.006,1.592-0.006,2.482h-0.709v-4.041h0.473l1.569,2.403v-2.403h0.703V65
			H66.618z"/>
		<path style="&st1;" d="M70.841,64.395c-0.212,0.274-0.722,0.662-1.451,0.662c-0.747,0-1.581-0.73-1.581-2.094
			c0-1.353,0.853-2.072,1.581-2.072c0.156,0,0.467,0.023,0.734,0.125c0.28,0.114,0.629,0.371,0.735,0.525l-0.33,0.514
			c-0.342-0.331-0.666-0.508-1.139-0.508c-0.517,0-0.89,0.548-0.89,1.398c0,0.891,0.392,1.438,0.89,1.438
			c0.286,0,0.591-0.154,0.791-0.354v-0.679h-0.909v-0.61h1.569V64.395z"/>
		<path style="&st1;" d="M75.056,63.471V65h-0.747v-1.563c-0.361-0.793-0.722-1.581-1.077-2.374v-0.103h0.722l0.778,1.843
			l0.728-1.843h0.673v0.103L75.056,63.471z"/>
		<path style="&st1;" d="M78.133,65.091c-0.903,0-1.656-0.782-1.656-2.111c0-1.358,0.716-2.117,1.656-2.117
			c0.903,0,1.656,0.81,1.656,2.128C79.79,64.321,79.042,65.091,78.133,65.091z M78.133,61.53c-0.697,0-0.958,0.65-0.958,1.461
			c0,0.788,0.28,1.433,0.958,1.433c0.679,0,0.959-0.634,0.959-1.433C79.092,62.187,78.806,61.53,78.133,61.53z"/>
		<path style="&st1;" d="M81.97,65.051c-1.015,0-1.482-0.679-1.476-1.935c0-0.673,0.006-1.484,0.006-2.157h0.716l0.006,1.998
			c0,0.993,0.237,1.41,0.747,1.41c0.473,0,0.722-0.468,0.722-1.427v-1.98h0.729v2.117C83.421,64.384,82.973,65.051,81.97,65.051z"/>
		<path style="&st1;" d="M86.111,65l-0.952-1.609h-0.224V65h-0.722c0-1.347-0.006-2.693-0.006-4.041h1.506
			c0.654,0,1.064,0.451,1.064,1.193c0,0.622-0.417,1.107-0.84,1.193l0.908,1.569V65H86.111z M85.601,61.593h-0.666v1.147h0.66
			c0.317,0,0.474-0.263,0.474-0.582C86.068,61.827,85.919,61.593,85.601,61.593z"/>
		<path style="&st1;" d="M89.155,61.063v-0.103h0.754l0.554,2.734l0.542-2.722h0.697l0.647,2.722l0.498-2.734h0.672v0.103
			l-0.958,3.943h-0.518l-0.69-2.876l-0.635,2.876h-0.567L89.155,61.063z"/>
		<path style="&st1;" d="M96.08,65l-0.225-0.856h-1.319L94.287,65h-0.723l1.352-4.058h0.61L96.821,65H96.08z M95.202,61.941
			l-0.411,1.575h0.815L95.202,61.941z"/>
		<path style="&st1;" d="M99.002,63.471V65h-0.747v-1.563c-0.36-0.793-0.722-1.581-1.076-2.374v-0.103H97.9l0.778,1.843l0.729-1.843
			h0.672v0.103L99.002,63.471z"/>
		<path style="&st1;" d="M104.3,65v-1.649h-1.17V65h-0.741v-4.041h0.741v1.729h1.17v-1.729h0.741V65H104.3z"/>
		<path style="&st1;" d="M107.472,65.091c-0.902,0-1.656-0.782-1.656-2.111c0-1.358,0.717-2.117,1.656-2.117
			c0.902,0,1.656,0.81,1.656,2.128C109.128,64.321,108.381,65.091,107.472,65.091z M107.472,61.53c-0.697,0-0.959,0.65-0.959,1.461
			c0,0.788,0.28,1.433,0.959,1.433s0.959-0.634,0.959-1.433C108.431,62.187,108.145,61.53,107.472,61.53z"/>
		<path style="&st1;" d="M113.051,65l-0.149-2.482l-0.99,2.442h-0.392l-0.94-2.477L110.461,65h-0.697L110,60.959h0.566l1.146,2.871
			l1.239-2.871h0.548L113.742,65H113.051z"/>
		<path style="&st1;" d="M114.435,65l0.012-4.041h2.322v0.628h-1.588c0,0.359-0.006,0.725-0.006,1.084h1.345v0.616h-1.339v1.073
			h1.638V65H114.435z"/>
	</g>
	<g id="INUKSHUK">
		<path style="&st2;" d="M62.189,38.659c0,0-0.404,0.651,0.116,2.325c0.521,1.674,4.167,0.781,7.478,0.595
			c3.311-0.186,12.165-1.228,12.165-1.228s6.362-0.484,6.101-2.79c-0.261-2.306-3.609-1.302-8.78-0.707
			c-5.171,0.595-15.272,1.302-15.272,1.302s-1.041,0.074-1.414,0.204C62.213,38.492,62.189,38.659,62.189,38.659z"/>
		<path style="&st2;" d="M72.871,32.353c0,0-2.009,0.409-1.934,1.191c0.074,0.781,0.744,2.604,0.744,2.604s0.632,0.819,2.083,0.633
			c1.451-0.186,2.27-0.707,2.418-1.042c0.149-0.335-0.112-2.158-0.484-2.53c-0.372-0.372-1.265-0.93-1.822-0.93
			C73.318,32.279,72.871,32.353,72.871,32.353z"/>
		<path style="&st2;" d="M68.519,42.528c0,0-1.116-0.112-1.098,0.706c0.019,0.819-0.019,2.214,0.167,2.772
			c0.186,0.558,0.056,1.005,0.707,1.024c0.651,0.018,3.609-0.13,4.65-0.335c1.042-0.205,5.115-0.669,5.115-0.669
			s1.023-0.279,0.8-1.358c-0.224-1.079-0.651-2.251-0.651-2.251s0.242-0.688-2.567-0.446C72.834,42.211,68.519,42.528,68.519,42.528
			z"/>
		<path style="&st2;" d="M67.96,47.867c0,0-0.781,0.893-1.376,3.349c-0.595,2.455-1.042,5.208-1.042,5.208s-0.223,0.855,0.67,1.079
			c0.893,0.223,2.604,0.409,3.162,0.409c0.559,0,2.084-0.298,2.233-1.153c0.148-0.856,0.893-6.139,0.893-6.139
			s0.855-2.953-1.488-3.009C68.668,47.555,67.96,47.867,67.96,47.867z"/>
		<path style="&st2;" d="M78.662,47.554c0,0,0.75,0.947,1.197,3.44c0.447,2.492,0.719,5.27,0.719,5.27s0.173,0.87-0.771,1.027
			c-0.945,0.157-2.737,0.218-3.317,0.177c-0.581-0.041-2.146-0.449-2.241-1.313c-0.095-0.864-0.499-6.187-0.499-6.187
			s-0.683-3.007,1.758-2.893C77.949,47.191,78.662,47.554,78.662,47.554z"/>
	</g>
	<g id="Dawn_Mashinter_-_Scriptina">
		<path style="&st3;" d="M40.852,38.84c-0.646-0.118-1.333-0.188-2.06-0.209c-0.728-0.021-1.464,0.021-2.209,0.125
			s-1.44,0.3-2.086,0.585s-1.21,0.669-1.693,1.149c-0.483,0.481-0.83,1.083-1.039,1.808c-0.163,0.543-0.201,1.083-0.113,1.62
			c0.087,0.537,0.236,1.045,0.445,1.525c0.209,0.481,0.451,0.927,0.725,1.338c0.273,0.411,0.521,0.763,0.742,1.055
			c0.209,0.279,0.282,0.457,0.218,0.533s-0.212-0.01-0.445-0.261c-0.792-0.919-1.377-1.818-1.755-2.696
			c-0.378-0.877-0.503-1.755-0.375-2.633c0.128-0.836,0.439-1.546,0.934-2.132c0.495-0.585,1.091-1.062,1.79-1.432
			c0.699-0.369,1.464-0.637,2.296-0.805c0.832-0.167,1.653-0.265,2.462-0.292s1.568,0.007,2.278,0.104
			c0.71,0.098,1.292,0.23,1.746,0.397c1.083,0.418,1.999,0.948,2.75,1.588c0.75,0.641,1.344,1.348,1.781,2.122
			s0.713,1.596,0.829,2.466s0.082,1.742-0.104,2.612c-0.187,0.871-0.527,1.721-1.021,2.55c-0.495,0.829-1.138,1.592-1.929,2.289
			c-0.291,0.251-0.672,0.53-1.144,0.836c-0.472,0.307-0.981,0.592-1.528,0.857c-0.547,0.265-1.115,0.488-1.702,0.669
			c-0.588,0.181-1.144,0.271-1.667,0.271c-0.512,0-0.972-0.115-1.379-0.345s-0.71-0.624-0.908-1.181
			c-0.047-0.111-0.084-0.17-0.114-0.177c-0.029-0.007-0.073,0.052-0.131,0.177c-0.07,0.223-0.137,0.439-0.201,0.648
			s-0.125,0.46-0.183,0.752c-0.035,0.237-0.096,0.359-0.184,0.366s-0.108-0.136-0.061-0.428c0.046-0.279,0.122-0.596,0.227-0.951
			c0.104-0.355,0.204-0.693,0.297-1.014c0.023-0.069,0.032-0.115,0.026-0.136s-0.021-0.08-0.043-0.178
			c-0.233-0.696-0.093-1.066,0.419-1.107c0.046,0,0.058,0,0.035,0c-0.012,0-0.006-0.028,0.017-0.083
			c0.233-0.571,0.495-1.181,0.786-1.829s0.594-1.296,0.908-1.943c0.314-0.648,0.634-1.289,0.96-1.923
			c0.326-0.634,0.64-1.223,0.943-1.766s0.588-1.035,0.855-1.474s0.5-0.791,0.699-1.055c0.058-0.084,0.14-0.15,0.244-0.199
			c0.105-0.049,0.198-0.073,0.279-0.073c0.093,0,0.16,0.024,0.201,0.073c0.041,0.049,0.032,0.122-0.026,0.219
			c-0.221,0.334-0.498,0.781-0.829,1.338c-0.332,0.557-0.69,1.174-1.074,1.85c-0.384,0.676-0.774,1.379-1.169,2.111
			c-0.396,0.731-0.769,1.439-1.118,2.122s-0.658,1.31-0.925,1.881s-0.46,1.031-0.576,1.379c-0.082,0.195-0.12,0.425-0.113,0.689
			c0.006,0.265,0.055,0.488,0.148,0.669c0.151,0.334,0.398,0.582,0.742,0.742c0.343,0.16,0.739,0.25,1.188,0.271
			c0.448,0.021,0.937-0.021,1.466-0.125s1.057-0.265,1.58-0.48c0.524-0.216,1.033-0.474,1.528-0.773
			c0.495-0.299,0.94-0.637,1.336-1.014c1.024-0.989,1.743-2.097,2.156-3.323c0.413-1.226,0.523-2.435,0.332-3.626
			s-0.693-2.295-1.501-3.313c-0.809-1.017-1.918-1.804-3.326-2.362C42.041,39.108,41.498,38.958,40.852,38.84z"/>
		<path style="&st3;" d="M46.43,53.94c-0.291,0-0.437-0.244-0.437-0.731c0-0.989,0.646-2.257,1.938-3.804
			c0.594-0.711,1.152-1.286,1.676-1.725c0.524-0.438,1.013-0.77,1.467-0.993c0.104-0.042,0.218-0.08,0.34-0.115
			s0.247-0.052,0.375-0.052c0.14,0,0.279,0.018,0.419,0.052s0.279,0.08,0.419,0.136c0.198,0.028,0.308,0.035,0.332,0.021
			c0.209-0.042,0.361-0.132,0.454-0.272c0.023-0.027,0.058-0.042,0.105-0.042c0.046,0,0.087,0.035,0.122,0.104
			c0.035,0.07,0.046,0.119,0.035,0.146c-0.337,0.627-0.672,1.244-1.004,1.85c-0.332,0.606-0.655,1.223-0.969,1.85
			c-0.245,0.488-0.483,1.048-0.716,1.682c-0.233,0.634-0.445,1.275-0.637,1.923c-0.192,0.648-0.358,1.265-0.498,1.85
			c-0.14,0.585-0.233,1.08-0.28,1.484c-0.012,0.07-0.017,0.132-0.017,0.188c0,0.069,0,0.139,0,0.209
			c0,0.473,0.122,0.825,0.367,1.055c0.244,0.23,0.576,0.345,0.995,0.345s0.832-0.083,1.239-0.25c0.617-0.251,1.42-0.85,2.41-1.797
			c0.477-0.46,0.905-0.934,1.283-1.421c0.378-0.488,0.707-0.948,0.986-1.379c0.105-0.14,0.175-0.209,0.209-0.209
			c0.012,0.014,0.018,0.035,0.018,0.063c0,0.056-0.023,0.132-0.07,0.23c-0.268,0.474-0.591,0.975-0.969,1.505
			c-0.378,0.529-0.83,1.059-1.354,1.588c-0.489,0.474-0.928,0.864-1.318,1.17c-0.39,0.306-0.748,0.529-1.074,0.669
			c-0.163,0.069-0.326,0.122-0.489,0.157c-0.164,0.035-0.338,0.052-0.524,0.052c-0.279,0-0.536-0.052-0.768-0.157
			c-0.233-0.104-0.443-0.233-0.629-0.387c-0.221-0.153-0.375-0.373-0.462-0.658c-0.087-0.286-0.125-0.61-0.114-0.972
			c0.012-0.292,0.062-0.683,0.148-1.17c0.087-0.488,0.201-1.007,0.341-1.557c0.14-0.55,0.291-1.097,0.454-1.641
			c0.163-0.543,0.326-1.024,0.489-1.442c0.198-0.501,0.393-0.968,0.585-1.4c0.192-0.432,0.387-0.829,0.585-1.191
			c0.082-0.153,0.076-0.229-0.018-0.229c-0.012,0-0.029,0.014-0.052,0.042c-0.279,0.404-0.614,0.829-1.004,1.275
			c-0.39,0.446-0.841,0.934-1.353,1.463c-1.024,1.031-1.903,1.805-2.636,2.32C46.68,53.884,46.546,53.94,46.43,53.94z
			 M47.041,52.477c0,0.334,0.104,0.501,0.314,0.501c0.082,0,0.169-0.035,0.262-0.104c0.651-0.487,1.338-1.146,2.06-1.975
			c0.722-0.829,1.496-1.835,2.322-3.02c0.035-0.042,0.052-0.09,0.052-0.146c0-0.153-0.076-0.295-0.227-0.428
			c-0.151-0.132-0.343-0.199-0.576-0.199c-0.128,0-0.262,0.021-0.401,0.063c-0.547,0.167-1.24,0.801-2.078,1.902
			c-0.396,0.53-0.731,1.038-1.004,1.525c-0.274,0.488-0.492,0.955-0.655,1.4C47.064,52.15,47.041,52.309,47.041,52.477z"/>
		<path style="&st3;" d="M61.846,48.694c0,0.042-0.029,0.077-0.087,0.104c-0.093,0.028-0.187,0.056-0.279,0.084
			c-0.093,0.028-0.192,0.042-0.297,0.042c-0.187,1.24-0.722,2.39-1.606,3.449c-0.85,1.017-1.763,1.582-2.741,1.693
			c-0.116,0.014-0.256-0.059-0.419-0.22c-0.163-0.16-0.291-0.386-0.384-0.679c-0.023-0.083-0.035-0.202-0.035-0.355
			c0-1.157,0.146-2.25,0.437-3.281c0.035-0.084,0.023-0.139-0.035-0.167c-0.059-0.042-0.117-0.014-0.175,0.083
			c-0.57,0.934-1.091,1.728-1.563,2.383c-0.472,0.655-0.899,1.17-1.283,1.546c-0.384,0.391-0.699,0.564-0.943,0.522
			c-0.07,0-0.166-0.069-0.288-0.209c-0.123-0.139-0.178-0.257-0.166-0.355c0.046-0.32,0.186-0.738,0.419-1.254
			c0.233-0.515,0.553-1.142,0.96-1.881c0.407-0.724,0.718-1.299,0.934-1.724c0.215-0.425,0.334-0.7,0.358-0.826
			c0.011-0.097,0.087-0.146,0.227-0.146c0.174,0,0.262,0.083,0.262,0.25c0,0.07-0.018,0.146-0.052,0.23
			c-0.023,0.07-0.137,0.296-0.34,0.679c-0.204,0.383-0.492,0.93-0.864,1.641c-0.28,0.516-0.506,0.976-0.681,1.379
			c-0.175,0.404-0.303,0.746-0.384,1.024c-0.023,0.083-0.035,0.153-0.035,0.209c0,0.195,0.064,0.292,0.192,0.292
			c0.082,0,0.146-0.028,0.192-0.083c0.256-0.223,0.556-0.547,0.899-0.972c0.343-0.425,0.736-0.951,1.179-1.578
			c0.745-1.087,1.263-1.902,1.554-2.445c0.058-0.153,0.128-0.313,0.209-0.481c0.082-0.167,0.18-0.362,0.297-0.585
			c0.046-0.056,0.128-0.094,0.245-0.115c0.116-0.021,0.221-0.031,0.314-0.031c0.093,0.014,0.134,0.056,0.122,0.125
			c-0.128,0.237-0.247,0.533-0.358,0.888c-0.11,0.355-0.23,0.777-0.358,1.265c-0.128,0.571-0.23,1.097-0.305,1.578
			c-0.076,0.481-0.114,0.938-0.114,1.369c0,0.112,0,0.209,0,0.292s0.006,0.167,0.018,0.251c0.046,0.683,0.297,0.968,0.751,0.857
			c0.64-0.195,1.269-0.766,1.885-1.714c0.617-0.961,0.949-1.972,0.995-3.031c-0.151-0.042-0.276-0.136-0.375-0.282
			c-0.099-0.146-0.137-0.254-0.114-0.324c0.012-0.097,0.07-0.195,0.175-0.292c0.104-0.097,0.209-0.146,0.314-0.146
			c0.198,0,0.39,0.258,0.576,0.773c0.128,0.056,0.355,0.083,0.681,0.083C61.817,48.61,61.846,48.638,61.846,48.694z"/>
		<path style="&st3;" d="M60.397,53.459c-0.046-0.056-0.035-0.167,0.035-0.334c0.268-0.683,0.722-1.609,1.362-2.78
			c0.302-0.557,0.587-1.056,0.855-1.495c0.268-0.438,0.518-0.825,0.75-1.16c0.035-0.07,0.084-0.125,0.148-0.167
			c0.064-0.042,0.16-0.076,0.288-0.104c0.07-0.014,0.111-0.014,0.123,0c0,0.056-0.018,0.104-0.053,0.146
			c-0.442,0.613-0.823,1.223-1.144,1.829c-0.32,0.606-0.597,1.223-0.829,1.85c-0.047,0.07-0.07,0.161-0.07,0.272
			c0,0.153,0.046,0.23,0.14,0.23c0.07,0,0.14-0.049,0.209-0.146c0.326-0.376,0.666-0.749,1.021-1.118
			c0.355-0.369,0.718-0.735,1.091-1.097c0.873-0.836,1.46-1.324,1.763-1.463c0.163-0.167,0.308-0.279,0.437-0.334
			c0.256-0.139,0.459-0.167,0.611-0.083c0.163,0.07,0.157,0.229-0.017,0.48c-0.827,1.268-1.571,2.731-2.235,4.389
			c-0.64,1.644-0.984,2.954-1.03,3.929c-0.046,0.641,0.064,1.135,0.332,1.484c0.244,0.306,0.564,0.459,0.96,0.459
			c0.186,0,0.355-0.028,0.506-0.083c0.664-0.223,1.496-0.843,2.497-1.86c1.106-1.129,1.659-2.035,1.659-2.717
			c0-0.139-0.026-0.24-0.079-0.303c-0.052-0.063-0.113-0.104-0.183-0.125s-0.134-0.031-0.192-0.031c-0.047,0-0.07-0.021-0.07-0.063
			c0-0.083,0.049-0.153,0.148-0.209c0.099-0.055,0.189-0.083,0.271-0.083c0.198,0,0.297,0.16,0.297,0.48
			c0,0.154-0.035,0.355-0.105,0.606c-0.104,0.404-0.291,0.829-0.559,1.275c-0.268,0.446-0.605,0.912-1.013,1.4
			c-1.117,1.323-2.328,2.069-3.631,2.236c-0.466,0.055-0.85-0.098-1.152-0.46c-0.326-0.418-0.46-1.073-0.402-1.965
			c0.07-1.003,0.437-2.264,1.1-3.783c0.268-0.641,0.55-1.257,0.847-1.85s0.614-1.167,0.952-1.724
			c0.035-0.056,0.052-0.125,0.052-0.209c0-0.223-0.104-0.334-0.314-0.334c-0.093,0-0.186,0.035-0.279,0.104
			c-0.663,0.557-1.324,1.212-1.981,1.964c-0.658,0.752-1.33,1.609-2.017,2.571c-0.117,0.181-0.413,0.334-0.891,0.46
			C60.478,53.571,60.409,53.543,60.397,53.459z"/>
		<path style="&st3;" d="M78.275,53.564c-0.035,0.056-0.096,0.122-0.184,0.198c-0.087,0.077-0.195,0.15-0.323,0.22
			c-0.256,0.181-0.437,0.271-0.542,0.271c-0.093,0-0.14-0.153-0.14-0.46c0-0.822,0.629-2.215,1.886-4.18
			c0.5-0.794,1.021-1.55,1.563-2.268c0.542-0.718,1.109-1.418,1.703-2.101c0.256-0.585,0.489-1.181,0.698-1.787
			s0.401-1.223,0.576-1.85c0.314-1.17,0.471-2.006,0.471-2.508c0-0.474-0.09-0.794-0.271-0.961
			c-0.181-0.167-0.486-0.223-0.917-0.167c-1.257,0.167-2.893,1.199-4.906,3.093c-2.095,1.965-3.143,3.56-3.143,4.786
			c0,0.223,0.146,0.397,0.437,0.522c0.303,0.112,0.5,0.154,0.594,0.125c0.163-0.028,0.244-0.014,0.244,0.042
			s-0.093,0.118-0.279,0.188c-0.186,0.083-0.384,0.083-0.594,0c-0.128-0.056-0.262-0.202-0.401-0.439
			c-0.14-0.237-0.209-0.495-0.209-0.773c0-0.864,0.535-1.95,1.606-3.26c0.989-1.184,2.141-2.243,3.457-3.177
			c1.338-0.961,2.386-1.477,3.143-1.547c0.349-0.014,0.709,0.146,1.083,0.481c0.372,0.349,0.553,0.71,0.541,1.087
			c-0.023,0.585-0.146,1.313-0.367,2.184s-0.536,1.877-0.943,3.02c1.478-1.547,2.508-2.32,3.09-2.32
			c0.233,0,0.437,0.115,0.611,0.345c0.174,0.23,0.25,0.478,0.227,0.742c-0.175,1.645-0.984,4.25-2.427,7.817
			c-0.093,0.237-0.052,0.355,0.123,0.355c0.093,0,0.174-0.069,0.244-0.209c1.118-1.769,2.654-3.804,4.609-6.103
			c2.433-2.801,4.149-4.236,5.15-4.306c0.303-0.028,0.547,0.174,0.733,0.606c0.163,0.39,0.245,0.78,0.245,1.17
			c0,0.237-0.029,0.39-0.087,0.459c-0.652,1.24-1.196,2.296-1.632,3.167c-0.437,0.871-0.771,1.557-1.004,2.059
			c-1.176,2.564-1.868,4.675-2.078,6.333c-0.012,0.056-0.018,0.104-0.018,0.146c0,0.056,0,0.104,0,0.146
			c0,0.543,0.18,0.766,0.541,0.668c0.163-0.056,0.358-0.157,0.585-0.303c0.227-0.146,0.486-0.352,0.777-0.617
			c0.547-0.501,0.955-0.954,1.222-1.358c0.105-0.167,0.186-0.251,0.245-0.251c0.035,0,0.052,0.021,0.052,0.063
			c0,0.083-0.046,0.202-0.14,0.355c-0.244,0.432-0.623,0.906-1.135,1.421c-0.303,0.32-0.585,0.571-0.847,0.752
			c-0.262,0.181-0.509,0.313-0.742,0.397c-0.198,0.07-0.384-0.063-0.559-0.397c-0.187-0.334-0.279-0.676-0.279-1.024
			c-0.012-1.226,0.5-3.148,1.536-5.768c0.419-1.031,0.873-2.076,1.362-3.135c0.489-1.059,1.024-2.132,1.606-3.218
			c0.093-0.153,0.157-0.296,0.192-0.429c0.035-0.132,0.053-0.247,0.053-0.345c0-0.306-0.175-0.46-0.524-0.46
			c-0.151,0-0.314,0.028-0.489,0.083c-1.036,0.321-2.701,1.833-4.994,4.536c-2.014,2.369-3.789,4.765-5.325,7.189
			c-0.116,0.181-0.296,0.271-0.541,0.271c-0.187,0-0.279-0.069-0.279-0.209c0-0.027,0.002-0.052,0.009-0.073
			c0.005-0.021,0.014-0.052,0.026-0.094c1.013-2.299,1.801-4.256,2.366-5.873c0.564-1.616,0.922-2.905,1.074-3.866
			c0.046-0.46-0.087-0.69-0.401-0.69c-0.454,0-1.106,0.397-1.956,1.191c-0.722,0.655-1.28,1.275-1.676,1.86
			C81.01,49.168,79.567,51.891,78.275,53.564z M79,51.881c0.355-0.592,0.748-1.299,1.178-2.122c0.885-1.644,1.455-2.849,1.711-3.616
			c-0.675,0.697-1.415,1.693-2.218,2.989c-0.954,1.505-1.588,2.787-1.903,3.846c-0.128,0.376-0.117,0.564,0.035,0.564
			c0.082,0,0.169-0.077,0.262-0.23C78.333,52.95,78.645,52.473,79,51.881z"/>
		<path style="&st3;" d="M94.303,53.94c-0.291,0-0.437-0.244-0.437-0.731c0-0.989,0.646-2.257,1.938-3.804
			c0.594-0.711,1.152-1.286,1.676-1.725c0.524-0.438,1.013-0.77,1.467-0.993c0.104-0.042,0.218-0.08,0.34-0.115
			s0.247-0.052,0.375-0.052c0.14,0,0.279,0.018,0.419,0.052s0.279,0.08,0.419,0.136c0.198,0.028,0.308,0.035,0.332,0.021
			c0.209-0.042,0.361-0.132,0.454-0.272c0.023-0.027,0.058-0.042,0.105-0.042c0.046,0,0.087,0.035,0.122,0.104
			c0.035,0.07,0.046,0.119,0.035,0.146c-0.337,0.627-0.672,1.244-1.004,1.85c-0.332,0.606-0.655,1.223-0.969,1.85
			c-0.245,0.488-0.483,1.048-0.716,1.682c-0.233,0.634-0.445,1.275-0.637,1.923c-0.192,0.648-0.358,1.265-0.498,1.85
			c-0.14,0.585-0.233,1.08-0.28,1.484c-0.012,0.07-0.017,0.132-0.017,0.188c0,0.069,0,0.139,0,0.209
			c0,0.473,0.122,0.825,0.367,1.055c0.244,0.23,0.576,0.345,0.995,0.345s0.832-0.083,1.239-0.25c0.617-0.251,1.42-0.85,2.41-1.797
			c0.477-0.46,0.905-0.934,1.283-1.421c0.378-0.488,0.707-0.948,0.986-1.379c0.105-0.14,0.175-0.209,0.209-0.209
			c0.012,0.014,0.018,0.035,0.018,0.063c0,0.056-0.023,0.132-0.07,0.23c-0.268,0.474-0.591,0.975-0.969,1.505
			c-0.378,0.529-0.83,1.059-1.354,1.588c-0.489,0.474-0.928,0.864-1.318,1.17c-0.39,0.306-0.748,0.529-1.074,0.669
			c-0.163,0.069-0.326,0.122-0.489,0.157c-0.164,0.035-0.338,0.052-0.524,0.052c-0.279,0-0.536-0.052-0.768-0.157
			c-0.233-0.104-0.443-0.233-0.629-0.387c-0.221-0.153-0.375-0.373-0.462-0.658c-0.087-0.286-0.125-0.61-0.114-0.972
			c0.012-0.292,0.062-0.683,0.148-1.17c0.087-0.488,0.201-1.007,0.341-1.557c0.14-0.55,0.291-1.097,0.454-1.641
			c0.163-0.543,0.326-1.024,0.489-1.442c0.198-0.501,0.393-0.968,0.585-1.4c0.192-0.432,0.387-0.829,0.585-1.191
			c0.082-0.153,0.076-0.229-0.018-0.229c-0.012,0-0.029,0.014-0.052,0.042c-0.279,0.404-0.614,0.829-1.004,1.275
			c-0.39,0.446-0.841,0.934-1.353,1.463c-1.024,1.031-1.903,1.805-2.636,2.32C94.553,53.884,94.419,53.94,94.303,53.94z
			 M94.914,52.477c0,0.334,0.104,0.501,0.314,0.501c0.082,0,0.169-0.035,0.262-0.104c0.651-0.487,1.338-1.146,2.06-1.975
			c0.722-0.829,1.496-1.835,2.322-3.02c0.035-0.042,0.052-0.09,0.052-0.146c0-0.153-0.076-0.295-0.227-0.428
			c-0.151-0.132-0.343-0.199-0.576-0.199c-0.128,0-0.262,0.021-0.401,0.063c-0.547,0.167-1.24,0.801-2.078,1.902
			c-0.396,0.53-0.731,1.038-1.004,1.525c-0.274,0.488-0.492,0.955-0.655,1.4C94.937,52.15,94.914,52.309,94.914,52.477z"/>
		<path style="&st3;" d="M105.477,50.386c0.884-0.334,1.763-0.592,2.636-0.773l0.018,0.021c-0.815,0.195-1.65,0.498-2.505,0.909
			c-0.856,0.411-1.749,0.938-2.68,1.578c0.151,0.237,0.259,0.436,0.323,0.596s0.096,0.29,0.096,0.387c0,0.39-0.384,0.78-1.152,1.17
			c-0.652,0.348-1.182,0.522-1.589,0.522c-0.14,0-0.262-0.021-0.367-0.063c-0.163,0.027-0.294,0.055-0.393,0.083
			c-0.099,0.028-0.178,0.028-0.236,0c-0.151-0.014-0.186-0.104-0.104-0.272c0.198-0.292,0.983-1.01,2.357-2.152l-0.559-0.899
			c-0.128-0.195-0.224-0.383-0.288-0.564c-0.064-0.181-0.107-0.369-0.131-0.564c-0.093-0.934,0.699-1.986,2.375-3.156
			c0.838-0.599,1.626-1.041,2.366-1.327c0.739-0.285,1.435-0.421,2.086-0.407c0.07,0,0.134,0.042,0.192,0.125
			c0.046,0.125,0.046,0.216,0,0.271c-0.082,0.14-0.213,0.279-0.393,0.418c-0.181,0.14-0.312,0.195-0.393,0.167
			c-0.268-0.111-0.495-0.188-0.681-0.229c-0.187-0.042-0.343-0.063-0.471-0.063c-0.07,0-0.137,0.004-0.201,0.011
			s-0.125,0.018-0.183,0.031c-0.664,0.195-1.432,0.662-2.305,1.4c-1.106,0.906-1.618,1.7-1.537,2.382
			c0.035,0.279,0.163,0.634,0.384,1.066c0.245,0.418,0.442,0.676,0.594,0.773C103.679,51.202,104.592,50.721,105.477,50.386z
			 M100.483,54.567c0.209,0.056,0.564-0.021,1.065-0.23c0.233-0.111,0.428-0.209,0.585-0.292s0.265-0.181,0.323-0.292
			c0.046-0.07,0.07-0.146,0.07-0.23c0-0.223-0.134-0.481-0.402-0.773c-0.186,0.14-0.471,0.376-0.855,0.711
			c-0.233,0.195-0.419,0.362-0.559,0.501s-0.239,0.265-0.297,0.376C100.32,54.462,100.344,54.539,100.483,54.567z"/>
		<path style="&st3;" d="M108.323,48.715c-0.605,1.268-1.234,2.613-1.886,4.034c0.058-0.055,0.134-0.146,0.227-0.271
			s0.221-0.286,0.384-0.481c0.373-0.446,0.768-0.892,1.187-1.337c0.419-0.446,0.85-0.892,1.292-1.338
			c1.071-1.017,1.798-1.546,2.183-1.588c0.046-0.069,0.273-0.167,0.681-0.292c0.07-0.014,0.157,0.031,0.262,0.136
			c0.104,0.104,0.157,0.213,0.157,0.324c0,0.056-0.006,0.091-0.018,0.104c-0.198,0.292-0.408,0.645-0.628,1.055
			c-0.221,0.411-0.454,0.875-0.699,1.39c-0.57,1.24-0.855,2.111-0.855,2.612c0,0.363,0.157,0.543,0.472,0.543
			c0.57,0,1.501-0.585,2.793-1.755c0.035-0.028,0.067-0.049,0.096-0.063c0.029-0.014,0.049-0.028,0.061-0.042
			c0.011,0.014,0.017,0.028,0.017,0.042l0.018,0.021l-0.122,0.146c-1.513,1.477-2.607,2.215-3.282,2.215
			c-0.21,0-0.425-0.125-0.646-0.376c-0.268-0.25-0.373-0.536-0.314-0.857c0.221-1.1,0.844-2.459,1.868-4.075
			c0.046-0.07,0.07-0.16,0.07-0.272c0-0.195-0.087-0.292-0.262-0.292c-0.105,0-0.222,0.049-0.35,0.146
			c-0.652,0.418-1.56,1.296-2.724,2.633c-0.978,1.128-1.729,2.069-2.252,2.821c-0.023-0.055-0.087,0-0.192,0.167
			c-0.023,0.069-0.052,0.104-0.087,0.104c-0.093,0-0.14-0.112-0.14-0.334c0-0.069,0.005-0.125,0.017-0.167
			c0.465-1.185,1.021-2.491,1.667-3.919s1.388-3.006,2.226-4.734c-0.058-0.014-0.131-0.028-0.218-0.042
			c-0.087-0.014-0.183-0.034-0.288-0.063c-0.163-0.042-0.309-0.167-0.437-0.376s-0.192-0.411-0.192-0.606
			c0-0.083,0.011-0.153,0.035-0.209c0.023-0.055,0.053-0.111,0.087-0.167c0.57-0.725,1.426-1.233,2.566-1.526
			c1.63-2.939,3.262-5.298,4.897-7.075c1.635-1.776,3.303-3.02,5.002-3.73c0.908-0.39,1.81-0.585,2.706-0.585
			c1.49,0,2.735,0.502,3.736,1.505c0.954,0.976,1.432,2.139,1.432,3.49c0,1.031-0.297,2.006-0.891,2.926
			c-0.64,1.017-1.6,1.881-2.88,2.591c-4.679,2.634-9.289,3.95-13.828,3.95c-0.198,0-0.396-0.003-0.594-0.01
			c-0.198-0.007-0.39-0.018-0.576-0.031C109.521,46.228,108.928,47.447,108.323,48.715z M110.357,43.448
			c0.215-0.404,0.428-0.801,0.637-1.191c-0.489,0.167-0.905,0.38-1.249,0.637c-0.343,0.258-0.631,0.547-0.864,0.868
			c-0.093,0.112-0.14,0.244-0.14,0.397c0,0.237,0.128,0.376,0.384,0.418c0.163,0.028,0.294,0.049,0.393,0.063
			c0.099,0.014,0.166,0.021,0.201,0.021C109.929,44.256,110.141,43.852,110.357,43.448z M110.881,44.744
			c0.215,0.014,0.439,0.021,0.672,0.021c0.966,0,1.941-0.073,2.924-0.219c0.984-0.146,1.993-0.358,3.029-0.638
			c1.315-0.376,2.584-0.85,3.806-1.421s2.403-1.254,3.544-2.048c2.421-1.686,3.631-3.455,3.631-5.309
			c0-1.212-0.489-2.215-1.466-3.01c-0.978-0.836-2.119-1.254-3.422-1.254c-0.85,0-1.676,0.202-2.479,0.606
			c-1.956,0.975-3.83,2.56-5.622,4.754c-1.792,2.195-3.539,5.02-5.238,8.475C110.458,44.716,110.665,44.73,110.881,44.744z"/>
		<path style="&st3;" d="M117.41,51.975c-0.285,0.265-0.6,0.541-0.942,0.826c-0.344,0.286-0.69,0.554-1.039,0.805
			s-0.652,0.446-0.908,0.585c-0.07,0.027-0.178,0.027-0.323,0c-0.146-0.028-0.291-0.094-0.437-0.199s-0.273-0.244-0.384-0.418
			c-0.111-0.174-0.166-0.387-0.166-0.638c0-0.223,0.046-0.512,0.14-0.867c0.093-0.355,0.209-0.731,0.349-1.128
			c0.14-0.397,0.291-0.801,0.454-1.212c0.163-0.411,0.314-0.787,0.454-1.128c0.14-0.341,0.256-0.634,0.35-0.878
			c0.093-0.244,0.145-0.394,0.157-0.449c0.023-0.167,0.093-0.282,0.21-0.345c0.116-0.063,0.227-0.073,0.332-0.032
			c0.104,0.042,0.18,0.14,0.227,0.293c0.046,0.153,0.017,0.355-0.087,0.606c-0.396,0.892-0.701,1.578-0.917,2.059
			c-0.216,0.48-0.37,0.833-0.463,1.056c-0.093,0.223-0.148,0.359-0.166,0.407c-0.017,0.049-0.032,0.094-0.043,0.136
			c-0.012,0.042-0.038,0.119-0.079,0.23c-0.041,0.112-0.131,0.342-0.271,0.69s-0.212,0.616-0.218,0.805
			c-0.006,0.188,0.032,0.324,0.113,0.407c0.082,0.084,0.184,0.122,0.306,0.115s0.242-0.024,0.358-0.052
			c0.221-0.056,0.498-0.188,0.83-0.397c0.332-0.209,0.672-0.445,1.021-0.71c0.35-0.265,0.675-0.529,0.978-0.794
			c0.302-0.265,0.535-0.488,0.698-0.669c0.105-0.125,0.18-0.195,0.227-0.209c0.046-0.014,0.073,0,0.079,0.042
			c0.006,0.042-0.009,0.104-0.044,0.188c-0.035,0.083-0.087,0.16-0.157,0.23C117.908,51.494,117.695,51.711,117.41,51.975z
			 M116.459,45.684c-0.256,0.292-0.472,0.418-0.646,0.376c-0.256-0.056-0.384-0.174-0.384-0.355c0-0.195,0.134-0.453,0.401-0.773
			c0.268-0.334,0.483-0.522,0.646-0.564c0.128-0.028,0.248,0.018,0.358,0.136c0.111,0.119,0.148,0.241,0.114,0.366
			C116.913,45.106,116.749,45.378,116.459,45.684z"/>
		<path style="&st3;" d="M115.726,53.459c-0.046-0.056-0.035-0.167,0.035-0.334c0.268-0.683,0.722-1.609,1.362-2.78
			c0.302-0.557,0.587-1.056,0.855-1.495c0.268-0.438,0.518-0.825,0.75-1.16c0.035-0.07,0.084-0.125,0.148-0.167
			c0.064-0.042,0.16-0.076,0.288-0.104c0.07-0.014,0.111-0.014,0.123,0c0,0.056-0.018,0.104-0.053,0.146
			c-0.442,0.613-0.823,1.223-1.144,1.829c-0.32,0.606-0.597,1.223-0.829,1.85c-0.047,0.07-0.07,0.161-0.07,0.272
			c0,0.153,0.046,0.23,0.14,0.23c0.07,0,0.14-0.049,0.209-0.146c0.326-0.376,0.666-0.749,1.021-1.118
			c0.355-0.369,0.718-0.735,1.091-1.097c0.873-0.836,1.46-1.324,1.763-1.463c0.163-0.167,0.308-0.279,0.437-0.334
			c0.256-0.139,0.459-0.167,0.611-0.083c0.163,0.07,0.157,0.229-0.017,0.48c-0.827,1.268-1.571,2.731-2.235,4.389
			c-0.64,1.644-0.984,2.954-1.03,3.929c-0.046,0.641,0.064,1.135,0.332,1.484c0.244,0.306,0.564,0.459,0.96,0.459
			c0.186,0,0.355-0.028,0.506-0.083c0.664-0.223,1.496-0.843,2.497-1.86c1.106-1.129,1.659-2.035,1.659-2.717
			c0-0.139-0.026-0.24-0.079-0.303c-0.052-0.063-0.113-0.104-0.183-0.125s-0.134-0.031-0.192-0.031c-0.047,0-0.07-0.021-0.07-0.063
			c0-0.083,0.049-0.153,0.148-0.209c0.099-0.055,0.189-0.083,0.271-0.083c0.198,0,0.297,0.16,0.297,0.48
			c0,0.154-0.035,0.355-0.105,0.606c-0.104,0.404-0.291,0.829-0.559,1.275c-0.268,0.446-0.605,0.912-1.013,1.4
			c-1.117,1.323-2.328,2.069-3.631,2.236c-0.466,0.055-0.85-0.098-1.152-0.46c-0.326-0.418-0.46-1.073-0.402-1.965
			c0.07-1.003,0.437-2.264,1.1-3.783c0.268-0.641,0.55-1.257,0.847-1.85s0.614-1.167,0.952-1.724
			c0.035-0.056,0.052-0.125,0.052-0.209c0-0.223-0.104-0.334-0.314-0.334c-0.093,0-0.186,0.035-0.279,0.104
			c-0.663,0.557-1.324,1.212-1.981,1.964c-0.658,0.752-1.33,1.609-2.017,2.571c-0.117,0.181-0.413,0.334-0.891,0.46
			C115.807,53.571,115.737,53.543,115.726,53.459z"/>
		<path style="&st3;" d="M120.579,64.41c-0.314-0.404-0.512-0.86-0.593-1.369c-0.082-0.509-0.123-1.063-0.123-1.662
			c0-1.965,0.669-4.779,2.008-8.444c0.594-1.616,1.188-3.072,1.781-4.368c0.594-1.296,1.188-2.459,1.781-3.491
			c0.14-0.181,0.209-0.39,0.209-0.627c0-0.25-0.105-0.446-0.314-0.585c-0.419-0.195-0.582-0.411-0.489-0.648
			c0.035-0.083,0.207-0.146,0.515-0.188c0.308-0.042,0.742-0.063,1.301-0.063c0.046,0,0.052-0.021,0.017-0.063
			c-0.035-0.042-0.041-0.083-0.017-0.125c0.559-1.045,1.205-2.086,1.938-3.125c0.733-1.038,1.501-2.114,2.305-3.229
			c0.07-0.097,0.396-0.279,0.978-0.543c0.279-0.111,0.48-0.199,0.603-0.261c0.122-0.063,0.253-0.094,0.393-0.094
			c0.128,0,0.192,0.063,0.192,0.188c0,0.056-0.058,0.104-0.174,0.146c-1.094,0.265-2.904,2.474-5.43,6.625
			c-0.187,0.321-0.146,0.48,0.122,0.48h2.532c0.687,0,1.219,0.004,1.597,0.011s0.614,0.01,0.707,0.01
			c0.105,0,0.175,0.021,0.21,0.063c0,0.028-0.032,0.101-0.096,0.219c-0.064,0.119-0.148,0.185-0.253,0.199
			c-0.663,0.028-1.423,0.073-2.278,0.136c-0.855,0.063-1.831,0.129-2.924,0.198c-0.198,0.042-0.344,0.154-0.437,0.334
			c-0.617,1.087-1.199,2.167-1.746,3.24c-0.547,1.073-1.083,2.236-1.606,3.49c-0.803,1.993-1.438,3.8-1.903,5.423
			c-0.466,1.623-0.745,3.083-0.838,4.379c-0.012,0.181-0.018,0.348-0.018,0.501c0,0.167,0,0.334,0,0.501
			c0,2.424,0.716,3.637,2.147,3.637c0.407,0,0.861-0.091,1.362-0.272c0.733-0.279,1.46-0.718,2.183-1.316
			c0.722-0.599,1.455-1.379,2.2-2.341c0.768-0.961,1.359-1.86,1.772-2.696s0.667-1.63,0.76-2.382c0-1.31-0.39-1.888-1.17-1.735
			c-0.174,0.028-0.326,0.09-0.454,0.188c-0.128,0.098-0.222,0.146-0.28,0.146c-0.116,0-0.163-0.063-0.14-0.188
			c0.058-0.112,0.143-0.209,0.253-0.293c0.11-0.083,0.317-0.202,0.62-0.355c0.046-0.014,0.116-0.021,0.209-0.021
			c0.373,0,0.728,0.299,1.065,0.899c0.35,0.627,0.512,1.1,0.489,1.421c-0.233,1.839-1.345,3.838-3.335,5.999
			c-1.013,1.086-1.958,1.909-2.837,2.466c-0.879,0.557-1.708,0.836-2.488,0.836C121.953,65.665,121.184,65.247,120.579,64.41z"/>
		<path style="&st3;" d="M132.094,48.161c-0.262,0.216-0.556,0.352-0.882,0.408c-0.198,0.042-0.492,0.07-0.882,0.083
			c-0.39,0.014-0.818,0.028-1.283,0.042c-0.465,0.014-0.931,0.021-1.396,0.021c-0.466,0-0.873,0-1.222,0
			c-0.128,0.209-0.265,0.442-0.411,0.7s-0.282,0.533-0.41,0.826s-0.239,0.596-0.332,0.909c-0.093,0.313-0.146,0.637-0.157,0.972
			c-0.012,0.307,0.015,0.558,0.079,0.752c0.064,0.195,0.151,0.345,0.262,0.449s0.239,0.174,0.384,0.209
			c0.146,0.035,0.294,0.045,0.445,0.032c0.384-0.07,0.794-0.202,1.231-0.397c0.436-0.195,0.812-0.397,1.126-0.606
			c0.093-0.069,0.163-0.08,0.209-0.031c0.046,0.049,0.023,0.108-0.07,0.178c-0.128,0.111-0.279,0.233-0.454,0.366
			c-0.174,0.132-0.367,0.261-0.576,0.387c-0.209,0.125-0.428,0.24-0.655,0.345c-0.227,0.104-0.445,0.178-0.654,0.219
			c-0.175,0.042-0.367,0.018-0.576-0.073c-0.21-0.09-0.402-0.226-0.576-0.407c-0.175-0.181-0.32-0.394-0.437-0.638
			c-0.117-0.244-0.169-0.505-0.157-0.784c0.035-0.766,0.212-1.533,0.532-2.299s0.71-1.48,1.17-2.143
			c0.46-0.662,0.943-1.233,1.449-1.713c0.506-0.481,0.963-0.818,1.371-1.014c0.221-0.084,0.419-0.073,0.594,0.031
			c0.174,0.104,0.311,0.258,0.41,0.459c0.099,0.202,0.157,0.429,0.174,0.68c0.018,0.25-0.026,0.48-0.131,0.689
			c-0.174,0.39-0.489,0.718-0.943,0.982c-0.454,0.265-0.972,0.453-1.554,0.564c0.314,0,0.634,0,0.96,0
			c0.337,0,0.657-0.003,0.96-0.011c0.303-0.007,0.585-0.017,0.847-0.031c0.262-0.014,0.486-0.035,0.672-0.063
			c0.245-0.028,0.492-0.119,0.742-0.272c0.25-0.153,0.445-0.306,0.585-0.46c0.058-0.097,0.107-0.132,0.148-0.104
			c0.041,0.028,0.032,0.091-0.026,0.188C132.544,47.761,132.355,47.945,132.094,48.161z M130.042,46.039
			c0.012-0.167-0.017-0.296-0.087-0.386c-0.07-0.091-0.172-0.132-0.306-0.125s-0.288,0.066-0.463,0.178
			c-0.431,0.292-0.867,0.679-1.309,1.16c-0.443,0.481-0.862,0.979-1.257,1.495c0.303,0,0.617-0.042,0.943-0.125
			c0.326-0.084,0.634-0.206,0.925-0.366s0.556-0.345,0.794-0.554c0.238-0.209,0.428-0.438,0.567-0.689
			C129.966,46.402,130.03,46.207,130.042,46.039z"/>
		<path style="&st3;" d="M129.065,54.316c-0.023-0.07-0.018-0.139,0.018-0.209c1.129-2.09,1.897-3.699,2.305-4.828
			c0.07-0.209,0.104-0.383,0.104-0.522c0-0.028-0.017-0.104-0.052-0.23c-0.012-0.056-0.012-0.104,0-0.146
			c0.14-0.055,0.576-0.348,1.31-0.877c0.011-0.028,0.035-0.042,0.07-0.042c0.07,0,0.116,0.035,0.14,0.104
			c0.046,0.083,0.041,0.16-0.018,0.23c-0.373,0.613-0.689,1.146-0.952,1.599c-0.262,0.453-0.457,0.833-0.584,1.139
			c-0.035,0.083-0.053,0.153-0.053,0.209c0,0.07,0.064,0.077,0.192,0.021c0.104-0.056,0.174-0.111,0.209-0.167
			c0.454-0.654,1.042-1.33,1.763-2.027c0.745-0.725,1.327-1.191,1.746-1.4c0.36-0.014,0.628,0.028,0.803,0.125
			c0.011,0.014,0.017,0.028,0.017,0.042c0,0.042-0.021,0.102-0.061,0.178c-0.041,0.077-0.087,0.146-0.14,0.209
			s-0.108,0.112-0.166,0.146s-0.104,0.039-0.14,0.01c-0.233-0.125-0.547-0.063-0.942,0.188c-1.723,1.143-3.259,3.038-4.609,5.685
			c0,0.042-0.047,0.091-0.14,0.146c-0.093,0.042-0.198,0.094-0.314,0.157c-0.116,0.063-0.25,0.15-0.401,0.261
			C129.112,54.4,129.077,54.4,129.065,54.316z"/>
	</g>
</g>
</svg>
