<?xml version="1.0" encoding="utf-8"?>
<!-- Generator: Adobe Illustrator 16.0.0, SVG Export Plug-In . SVG Version: 6.00 Build 0)  -->
<!DOCTYPE svg PUBLIC "-//W3C//DTD SVG 1.1//EN" "http://www.w3.org/Graphics/SVG/1.1/DTD/svg11.dtd">
<svg version="1.1" xmlns="http://www.w3.org/2000/svg" xmlns:xlink="http://www.w3.org/1999/xlink" x="0px" y="0px" width="175px"
	 height="175px" viewBox="0 0 175 175" enable-background="new 0 0 175 175" xml:space="preserve">
<g id="Layer_1">
	<path fill="#EEC03A" d="M87.294,175.057C39.16,175.057,0,135.896,0,87.763C0,39.629,39.16,0.469,87.294,0.469
		c48.133,0,87.293,39.16,87.293,87.294C174.587,135.896,135.427,175.057,87.294,175.057 M87.294,7.902
		c-44.036,0-79.86,35.825-79.86,79.861c0,44.035,35.824,79.86,79.86,79.86c44.035,0,79.86-35.825,79.86-79.86
		C167.154,43.727,131.329,7.902,87.294,7.902"/>
</g>
<g id="Layer_2">
	<path fill="#EEC03A" d="M123.759,52.755c-0.564-0.567-1.563-0.482-2.229,0.183l-8.704,8.701c-0.666,0.669-0.75,1.668-0.186,2.234
		l12.355,12.354c0.282,0.283,0.676,0.402,1.077,0.369c0.403-0.034,0.816-0.223,1.155-0.558l8.699-8.702
		c0.668-0.664,0.752-1.661,0.184-2.226L123.759,52.755z"/>
	<path fill="#EEC03A" d="M70.352,106.851c-0.366-0.365-0.935-0.474-1.493-0.279c-0.557,0.19-1.018,0.656-1.208,1.215l-5.945,17.612
		c-0.188,0.555-0.078,1.114,0.285,1.479c0.273,0.278,0.662,0.408,1.074,0.372c0.133-0.012,0.272-0.04,0.402-0.085l17.616-5.948
		c0.561-0.188,1.021-0.649,1.215-1.206c0.192-0.557,0.084-1.125-0.278-1.494L70.352,106.851z"/>
	<path fill="#EEC03A" d="M122.429,78.792l-12.353-12.355c-0.564-0.564-1.562-0.484-2.23,0.185l-9.426,9.432
		c-0.003-0.003-0.009-0.006-0.011-0.01L85.237,89.217c0.003,0.002,0.006,0.004,0.006,0.008l-12.298,12.301
		c-0.67,0.669-0.75,1.665-0.188,2.229l12.359,12.354c0.28,0.285,0.668,0.404,1.072,0.371c0.403-0.033,0.82-0.222,1.156-0.553
		l8.868-8.871v-0.002l0.282-0.283v0.024l6.462-6.463v-0.022l15.362-15.363v0.002l3.929-3.926c0.318-0.321,0.52-0.736,0.553-1.156
		C122.836,79.449,122.701,79.063,122.429,78.792"/>
	<rect x="15.301" y="123.448" fill="#EEC03A" width="39.862" height="4.156"/>
</g>
</svg>
