<svg id="Layer_1" data-name="Layer 1" xmlns="http://www.w3.org/2000/svg" viewBox="0 0 150 150"><defs><style>.cls-1{fill:#676767;}</style></defs><title>services-marketing-icon</title><path class="cls-1" d="M75,0a75,75,0,1,0,75,75A75.09,75.09,0,0,0,75,0Zm0,148.41A73.41,73.41,0,1,1,148.41,75,73.49,73.49,0,0,1,75,148.41ZM68.49,71.58V54.53A1.62,1.62,0,0,0,68,53.37a1.64,1.64,0,0,0-1.16-.48H65.16a1.64,1.64,0,0,0-1.64,1.64v0.7L35.32,65.14H11.8a2.48,2.48,0,0,0-2.48,2.48v1.74H6.73a2.48,2.48,0,0,0-2.49,2.48V82a2.49,2.49,0,0,0,2.49,2.48H9.32V86.2a2.49,2.49,0,0,0,2.48,2.48h5.12v17.79A2.48,2.48,0,0,0,19.4,109h6.76a2.49,2.49,0,0,0,2.48-2.48V94h2.69l-1.86-5.34h5.84l28.21,9.9v0.7a1.64,1.64,0,0,0,1.64,1.64h1.69a1.65,1.65,0,0,0,1.16-.48,1.64,1.64,0,0,0,.48-1.16V82.24A5.56,5.56,0,0,0,68.49,71.58ZM9.32,82.87H6.73A0.9,0.9,0,0,1,5.83,82V71.84a0.89,0.89,0,0,1,.9-0.89H9.32V82.87Zm17.74,23.6a0.9,0.9,0,0,1-.9.9H19.4a0.9,0.9,0,0,1-.63-0.26,0.89,0.89,0,0,1-.26-0.63V88.69h8.55v17.79Zm7.6-19.38H11.8a0.9,0.9,0,0,1-.89-0.9V67.62a0.89,0.89,0,0,1,.89-0.9H34.66V87.1Zm28.87,9.81L36.25,87.33V66.49l27.28-9.58v40ZM66.9,99.3l0,0.05-1.74-.05,0.05-44.82,1.74,0V99.3ZM21.09,68.46H20.68V85.36h0.41V68.46Zm-1.34,0H19.34V85.36h0.41V68.46Zm-1.34,0H18V85.36h0.41V68.46Zm-1.34,0H16.66V85.36h0.41V68.46Zm-1.34,0H15.32V85.36h0.41V68.46Zm-1.34,0H14V85.36h0.41V68.46Zm-1.34,0H12.64V85.36h0.41V68.46Zm15.22,8.83a4.06,4.06,0,1,0-4.06-4.06A4.07,4.07,0,0,0,28.27,77.29Zm0-7h0Zm-0.24,0v2.95h0.47V70.28A3,3,0,1,1,28,70.28Zm0.29-1.82H28.21V69h0.11V68.46Zm-3,1.7-0.34-.35-0.08.08,0.35,0.34Zm-1.29,3H23.51v0.11H24V73.17Zm0.95,3.47,0.34-.35-0.08-.08-0.35.35ZM28.21,78h0.11V77.51H28.21V78Zm3.12-1.78-0.08.08,0.35,0.34,0.08-.08Zm1.7-3H32.55v0.11H33V73.17ZM31.68,69.9l-0.08-.08-0.35.35,0.08,0.08ZM27.21,80.69H23.51V82h3.71V80.69ZM29.33,82H33V80.69H29.33V82Zm43.14,0.32a0.31,0.31,0,0,0,0,.44l9.91,9.91a0.31,0.31,0,0,0,.44-0.44L72.9,82.29A0.31,0.31,0,0,0,72.47,82.29Zm0-10.76a0.31,0.31,0,0,0,.44,0l9.91-9.88a0.31,0.31,0,0,0-.43-0.44l-9.91,9.88A0.31,0.31,0,0,0,72.47,71.53Zm7.37,5.71h0a0.31,0.31,0,0,0,0-.61L75,76.6h0a0.31,0.31,0,0,0,0,.61Zm3.76-32.73A0.61,0.61,0,1,0,83,43.9,0.61,0.61,0,0,0,83.59,44.51Zm2.52,0a0.61,0.61,0,1,0-.61-0.62A0.62,0.62,0,0,0,86.12,44.51Zm2.52,0A0.61,0.61,0,1,0,88,43.9,0.61,0.61,0,0,0,88.64,44.51Zm29.65,19.76V61h1.63V49.69H102.42V61H115ZM103.42,50.68h15.51V60h-1.63v1.87L115.42,60h-12V50.68Zm7.06,5.88,2.11-1.22-2.11-1.22v2.44Zm0.69-5.4a4.18,4.18,0,1,0,4.18,4.18A4.18,4.18,0,0,0,111.17,51.16Zm0,7.37a3.19,3.19,0,1,1,3.19-3.19A3.19,3.19,0,0,1,111.17,58.53Zm17.46,40.9a0.5,0.5,0,0,0,.35-0.15l3.07-3.07a0.5,0.5,0,0,0,0-.7L129,92.44a0.5,0.5,0,0,0-.7,0l-3.07,3.07a0.5,0.5,0,0,0,0,.7l3.07,3.07A0.5,0.5,0,0,0,128.63,99.43Zm0-5.94L131,95.86l-2.37,2.37-2.37-2.37Zm1,9.13h-8.14l0.33,1.07h7.49Zm-1,3.21,0.32-1.07h-6.84l0.33,1.07h6.2Zm-6.4-6.4a0.5,0.5,0,0,0,.35-0.15l1.57-1.57a0.5,0.5,0,0,0,0-.7l-1.57-1.56a0.5,0.5,0,0,0-.7,0L120.32,97a0.5,0.5,0,0,0,0,.7l1.56,1.57A0.5,0.5,0,0,0,122.24,99.43Zm0-2.92,0.86,0.86-0.86.86-0.86-.86ZM128.45,109a1.42,1.42,0,1,0,1.43,1.42A1.42,1.42,0,0,0,128.45,109Zm-7.3-7.41H131l-1.61,5.33h-7.74l-2.9-9.59h-5.23v1.56h4.05l2.91,9.6h10.07l2.57-8.48H120.68Zm1.49,7.41a1.42,1.42,0,1,0,1.43,1.42A1.42,1.42,0,0,0,122.64,109ZM66,22.25a3.7,3.7,0,1,0,3.7,3.7A3.71,3.71,0,0,0,66,22.25Zm0,6.57A2.87,2.87,0,1,1,68.88,26,2.87,2.87,0,0,1,66,28.82Zm-7.3,2.56h14.6A0.42,0.42,0,0,0,73.73,31V21.48a0.42,0.42,0,0,0-.42-0.42H69.12l-0.82-1A0.42,0.42,0,0,0,68,20H64a0.42,0.42,0,0,0-.32.14l-0.82,1H62V20.93a0.42,0.42,0,0,0-.42-0.42H60.17a0.42,0.42,0,0,0-.42.42v0.13h-1a0.42,0.42,0,0,0-.42.42V31A0.42,0.42,0,0,0,58.71,31.39Zm0.42-9.49h1a0.42,0.42,0,0,0,.42-0.42V21.35h0.63v0.13a0.42,0.42,0,0,0,.42.42h1.46a0.42,0.42,0,0,0,.31-0.14l0.82-.95h3.56l0.82,0.95a0.42,0.42,0,0,0,.32.14h4v8.66H59.12V21.9Zm43,78.48a0.45,0.45,0,0,0,0-.48,9.69,9.69,0,0,0-6.29-4.34,0.43,0.43,0,0,0-.18,0,8.85,8.85,0,0,0-3.56,0,0.43,0.43,0,0,0-.19,0,9.7,9.7,0,0,0-6.29,4.34,0.45,0.45,0,0,0,0,.48A9.75,9.75,0,0,0,102.09,100.38Zm-9.89-4a8.09,8.09,0,0,1,3.27,0A3.1,3.1,0,1,1,92.21,96.42ZM93.84,104a8.81,8.81,0,0,1-7.33-3.89,8.82,8.82,0,0,1,3.95-3.21,4,4,0,1,0,6.78,0,8.82,8.82,0,0,1,3.94,3.21A8.81,8.81,0,0,1,93.84,104ZM127,79.27a2.86,2.86,0,1,0-2.85-2.86A2.86,2.86,0,0,0,127,79.27Zm0-4.81a2,2,0,1,1-2,2A2,2,0,0,1,127,74.46Zm-10.08,2a2.85,2.85,0,1,0,2.85-2.85A2.86,2.86,0,0,0,117,76.42Zm4.81,0a2,2,0,1,1-2-2A2,2,0,0,1,121.77,76.42Zm11.46,3.31a0.45,0.45,0,0,0-.49.1l-2.85,2.85V80.14a0.45,0.45,0,0,0-.45-0.45h-12a0.45,0.45,0,0,0-.44.45v7.23a0.45,0.45,0,0,0,.44.44h12a0.45,0.45,0,0,0,.45-0.44V84.84l2.85,2.85a0.45,0.45,0,0,0,.32.13,0.39,0.39,0,0,0,.17,0,0.44,0.44,0,0,0,.28-0.41V80.14A0.44,0.44,0,0,0,133.23,79.73ZM129,86.92H117.85V80.59H129v6.33Zm3.61-.63-2.53-2.53,2.53-2.53v5.07ZM114.13,35.64c2.37,0,4.3-2.23,4.3-5s-1.93-5-4.3-5-4.29,2.23-4.29,5S111.76,35.64,114.13,35.64Zm0-9.14c1.92,0,3.47,1.86,3.47,4.16s-1.56,4.16-3.47,4.16-3.47-1.86-3.47-4.16S112.22,26.5,114.13,26.5Zm-7.2,14h14.39a0.42,0.42,0,0,0,.31-0.14,0.42,0.42,0,0,0,.1-0.32c-0.26-1.95-2.41-3.55-5.47-4.09a0.41,0.41,0,0,0-.24,0,4.43,4.43,0,0,1-3.79,0,0.41,0.41,0,0,0-.24,0c-3.06.54-5.2,2.14-5.47,4.09a0.42,0.42,0,0,0,.1.33A0.42,0.42,0,0,0,106.93,40.46ZM112,36.73a5.28,5.28,0,0,0,4.24,0c2.33,0.44,4.07,1.57,4.56,2.9H107.46C107.94,38.3,109.69,37.17,112,36.73Zm23,10.55a2.08,2.08,0,1,0,2.08,2.08A2.08,2.08,0,0,0,135.06,47.29Zm0,3.46a1.38,1.38,0,1,1,1.38-1.38A1.39,1.39,0,0,1,135.06,50.75Zm-7.45.69a0.34,0.34,0,0,0,.24-0.1L137,42.16a0.35,0.35,0,0,0-.49-0.49l-9.18,9.18A0.35,0.35,0,0,0,127.61,51.44Zm1.73-5.72a2.08,2.08,0,1,0-2.08-2.08A2.08,2.08,0,0,0,129.35,45.73Zm0-3.46A1.38,1.38,0,1,1,128,43.65,1.39,1.39,0,0,1,129.35,42.27Zm-18.78,81h-3.13a1,1,0,0,0-.45-0.45v-6.57a0.41,0.41,0,1,0-.81,0v6.57a1,1,0,1,0,1.26,1.26h3.13A0.41,0.41,0,1,0,110.57,123.28Zm-4-9.56a10,10,0,1,0,10,10A10,10,0,0,0,106.58,113.71Zm0,19.13a9.16,9.16,0,1,1,9.16-9.16A9.17,9.17,0,0,1,106.58,132.84ZM92.78,28.8a7.71,7.71,0,1,0-7.71-7.71A7.72,7.72,0,0,0,92.78,28.8Zm0-14.64a6.93,6.93,0,1,1-6.93,6.93A6.94,6.94,0,0,1,92.78,14.17Zm-2.44,10a0.39,0.39,0,0,0,0,.78h2v0.59a0.39,0.39,0,1,0,.78,0V24.9h0.34a2.1,2.1,0,0,0,0-4.2H93.17V18.07h2a0.39,0.39,0,0,0,0-.78h-2V16.7a0.39,0.39,0,1,0-.78,0v0.59H92a2.1,2.1,0,1,0,0,4.2h0.34v2.63h-2Zm2.83-2.63h0.34a1.32,1.32,0,1,1,0,2.63H93.17V21.49ZM92,20.7a1.32,1.32,0,1,1,0-2.63h0.34V20.7H92Zm7,46.21H92v7h7v-7ZM98.1,73H93V67.91H98.1V73Zm7.42-5.56H99.75v0.65h5.77V67.41Zm0,1.8H99.75v0.65h5.77V69.21Zm0,1.8H99.75v0.65h5.77V71Zm0,1.8H99.75v0.65h5.77V72.82Zm-13,2.45h13V74.62h-13v0.65ZM109.4,87.42h0V75.2h0a0.49,0.49,0,0,0-.06-0.23l-0.06-.07a0.48,0.48,0,0,0-.09-0.1l-1.5-1.09V64.17H90v9.54l-1.5,1.09a0.48,0.48,0,0,0-.09.1L88.39,75a0.49,0.49,0,0,0-.06.23h0V87.42h0a0.47,0.47,0,0,0,0,.1s0,0,0,0v0l0,0.07,0,0.05,0.09,0.1,0,0,0,0h0a0.49,0.49,0,0,0,.22.06h20.09a0.49,0.49,0,0,0,.22-0.06h0l0,0,0,0,0.09-.1,0-.05,0-.07v0s0,0,0,0a0.47,0.47,0,0,0,0-.1h0Zm-1.71-12.49L108,75.16l-0.31.19V74.93ZM91,65.16H106.7V76l-7.88,4.43L93,77.07h6V76.42H92.54v0.4L91,76V65.16Zm-1,9.77v0.42l-0.32-.19Zm-0.72,1.15L90,76.51v0l0.44,0.25,7.43,4.53-8.59,5.23V76.08Zm1.27,10.85,8.27-5,8.27,5H90.59Zm17.81-.39-8.59-5.23,7.44-4.53,0.43-.24v0l0.71-.44V86.54Zm25.11-29a6.75,6.75,0,1,0,3.37,12.59,0.37,0.37,0,0,0-.19-0.7,0.37,0.37,0,0,0-.19.05,6,6,0,1,1,3-5.2v1.59a1.22,1.22,0,0,1-2.44,0V64.27a3.56,3.56,0,1,0-3.56,3.56,3.51,3.51,0,0,0,2.6-1.15l0.26-.28,0.17,0.34a1.91,1.91,0,0,0,.36.51,2,2,0,0,0,3.36-1.39V64.27A6.75,6.75,0,0,0,133.52,57.52Zm0,9.56a2.81,2.81,0,1,1,2.81-2.81A2.82,2.82,0,0,1,133.52,67.08Zm-53.38,46a3.44,3.44,0,1,0,3.44,3.44A3.45,3.45,0,0,0,80.14,113.1Zm0,5a1.55,1.55,0,1,1,1.55-1.55A1.55,1.55,0,0,1,80.14,118.09Zm7.11-4.58,0.57-.33-0.92-1.6-0.58.34a7.78,7.78,0,0,0-1.54-1.54l0.34-.58-1.6-.92-0.33.57a7.67,7.67,0,0,0-2.11-.56v-0.66H79.22v0.66a7.67,7.67,0,0,0-2.11.56l-0.33-.57-1.6.92,0.34,0.58A7.79,7.79,0,0,0,74,111.91l-0.58-.34-0.92,1.6L73,113.51a7.67,7.67,0,0,0-.56,2.11H71.8v1.85h0.66a7.67,7.67,0,0,0,.56,2.11l-0.57.33,0.93,1.6,0.58-.34a7.78,7.78,0,0,0,1.54,1.54l-0.34.58,1.6,0.92,0.33-.57a7.67,7.67,0,0,0,2.11.56v0.67h1.85v-0.67a7.67,7.67,0,0,0,2.11-.56l0.33,0.57,1.6-.92-0.34-.58a7.78,7.78,0,0,0,1.54-1.54l0.58,0.34,0.93-1.6-0.57-.33a7.67,7.67,0,0,0,.56-2.11h0.67v-1.85H87.81A7.67,7.67,0,0,0,87.25,113.51Zm-7.11,9.18a6.14,6.14,0,1,1,6.14-6.14A6.15,6.15,0,0,1,80.14,122.69ZM79.5,50.16A2.54,2.54,0,0,1,78.75,52L77.68,53l1.5-.23a4.94,4.94,0,0,0,3.31-2.07,11,11,0,0,0,3.63.6c5.08,0,9.21-3.34,9.21-7.44a6.31,6.31,0,0,0-1.2-3.63h4.43a0.49,0.49,0,0,0,.27-0.08l0,0A0.49,0.49,0,0,0,99,40l0,0s0,0,0,0a0.48,0.48,0,0,0,0-.06,0.49,0.49,0,0,0,0-.21v0a0.49,0.49,0,0,0-.15-0.23h0L90.74,33a0.5,0.5,0,0,0-.77.23L89,35.94l-2.33-.81a0.5,0.5,0,0,0-.62.65l0.28,0.69H86.12c-5.08,0-9.21,3.34-9.21,7.44a6.69,6.69,0,0,0,2,4.66A2.31,2.31,0,0,1,79.5,50.16ZM90.68,34.22l6.43,5.06H88.9Zm-2,2.66-0.52,1.48L87.4,36.43Zm-2.58.58c0.22,0,.43,0,0.64,0l1,2.46,0,0a0.47,0.47,0,0,0,0,.07,0.48,0.48,0,0,0,.09.08L88,40.19a0.49,0.49,0,0,0,.25.08h4.69a5.5,5.5,0,0,1,1.44,3.63c0,3.55-3.68,6.44-8.21,6.44a10,10,0,0,1-3.65-.67l-0.4-.16-0.21.37a4,4,0,0,1-1.59,1.53,3.56,3.56,0,0,0,.23-1.26,3.3,3.3,0,0,0-.84-2.29,5.74,5.74,0,0,1-1.75-4C77.9,40.35,81.59,37.46,86.12,37.46Z"/></svg>