<svg id="Layer_1" data-name="Layer 1" xmlns="http://www.w3.org/2000/svg" viewBox="0 0 166.38 150"><defs><style>.cls-1{fill:#676767;}</style></defs><title>services-print-design-icon</title><path class="cls-1" d="M73.16,123.8H64.59v12.56H68.3v-1.71h-2v-4h5.14v4h-2v1.71h3.71V123.8Zm-6,4H66.31v-2.28h0.86v2.28Zm2.14,1.14H68.45V127.8H69.3v1.14Zm2.14-1.14H70.59v-2.28h0.86v2.28Zm10.26-45H93.88a0.5,0.5,0,0,0,.5-0.5V67.27a0.5,0.5,0,0,0-.5-0.5H81.7a0.5,0.5,0,0,0-.5.5V82.35A0.5,0.5,0,0,0,81.7,82.84Zm0.5-15.07H93.39V81.85H82.2V67.77Zm-0.5-11H93.88a0.5,0.5,0,0,0,.5-0.5V47.1a0.5,0.5,0,0,0-.5-0.5H81.7a0.5,0.5,0,0,0-.5.5v9.17A0.5,0.5,0,0,0,81.7,56.76Zm0.5-9.17H93.39v8.17H82.2V47.6Zm0.63,4.86h9.93V51.66H82.83v0.79Zm0-1.72h9.93V49.94H82.83v0.79Zm0-1.72h9.93V48.22H82.83V49ZM75.37,47H27.8a0.79,0.79,0,0,0-.79.79V84.94a0.79,0.79,0,0,0,.79.79H75.37a0.79,0.79,0,0,0,.79-0.79V47.75A0.79,0.79,0,0,0,75.37,47ZM74.58,84.14h-46V48.55h46V84.14ZM69,82.77a0.5,0.5,0,0,0,.5.5h3.71a0.5,0.5,0,0,0,.5-0.5V79.06a0.5,0.5,0,0,0-.5-0.5H69.5a0.5,0.5,0,0,0-.5.5v3.71Zm1-3.22h2.72v2.72H70V79.56Zm-2.27-1H64a0.5,0.5,0,0,0-.5.5v3.71a0.5,0.5,0,0,0,.5.5h3.71a0.5,0.5,0,0,0,.5-0.5V79.06A0.5,0.5,0,0,0,67.72,78.56Zm-0.5,3.71H64.51V79.56h2.72v2.72Zm-5-3.71H58.52a0.5,0.5,0,0,0-.5.5v3.71a0.5,0.5,0,0,0,.5.5h3.71a0.5,0.5,0,0,0,.5-0.5V79.06A0.5,0.5,0,0,0,62.23,78.56Zm-0.5,3.71H59V79.56h2.72v2.72ZM24.52,72.6H23.22V71.29a0.5,0.5,0,0,0-.5-0.5h-3.6a0.5,0.5,0,0,0-.5.5v3.6a0.5,0.5,0,0,0,.5.5h1.31V76.7a0.5,0.5,0,0,0,.5.5h3.61a0.5,0.5,0,0,0,.5-0.5V73.09A0.5,0.5,0,0,0,24.52,72.6Zm-4.1.5v1.3H19.61V71.79h2.61V72.6h-1.3A0.5,0.5,0,0,0,20.42,73.09Zm1.8,0.5V74.4H21.42V73.59h0.81ZM24,76.2H21.42V75.39h1.3a0.5,0.5,0,0,0,.5-0.5v-1.3H24V76.2Zm0.5-29.6H19.12a0.5,0.5,0,0,0-.5.5V69.47a0.5,0.5,0,0,0,.5.5h5.41a0.5,0.5,0,0,0,.5-0.5V47.1A0.5,0.5,0,0,0,24.52,46.6ZM24,69H19.61V47.6H24V69Zm-3.38-17.5H23a0.5,0.5,0,0,0,.5-0.5V48.63a0.5,0.5,0,0,0-.5-0.5H20.65a0.5,0.5,0,0,0-.5.5V51A0.5,0.5,0,0,0,20.65,51.47Zm0.5-2.35H22.5v1.35H21.14V49.13Zm-0.5,10.1H23a0.5,0.5,0,0,0,.5-0.5V56.38a0.5,0.5,0,0,0-.5-0.5H20.65a0.5,0.5,0,0,0-.5.5v2.35A0.5,0.5,0,0,0,20.65,59.23Zm0.5-2.35H22.5v1.35H21.14V56.88Zm-0.5-1.53H23a0.5,0.5,0,0,0,.5-0.5V52.51A0.5,0.5,0,0,0,23,52H20.65a0.5,0.5,0,0,0-.5.5v2.35A0.5,0.5,0,0,0,20.65,55.35ZM21.14,53H22.5v1.35H21.14V53ZM34.55,73.85H51.92a0.5,0.5,0,0,0,.43-0.74l-8.69-15a0.52,0.52,0,0,0-.86,0l-8.69,15A0.5,0.5,0,0,0,34.55,73.85ZM43.24,59.3l7.83,13.55H35.41Zm5.49,7H53.1a8,8,0,1,0,8.49-8.49V53.46a0.5,0.5,0,0,0-.5-0.5H48.73a0.5,0.5,0,0,0-.5.5V65.83A0.5,0.5,0,0,0,48.73,66.33Zm12.86-.5v-7a7,7,0,1,1-7.5,7.5h7A0.5,0.5,0,0,0,61.59,65.83ZM49.23,54H60.6v3.88a8,8,0,0,0-7.5,7.5H49.23V54ZM162.77,79.33a3.57,3.57,0,0,0-1.14.2L154,68.61A74.71,74.71,0,0,0,134.5,24.36,14.71,14.71,0,0,0,113.14,8.12,74.38,74.38,0,0,0,69.43.67h0l-0.28,0-0.51.06h0l-0.77.1v0Q66.41,1.13,65,1.4h0l-0.68.15q-1,.21-2,0.45l-0.7.15h0q-2.26.55-4.46,1.23H57c-1.35.42-2.67,0.88-4,1.37h0a75,75,0,0,0-12.51,6.06v0c-0.46.28-.92,0.58-1.37,0.87h0c-0.54.34-1.06,0.69-1.59,1v0Q35.94,13.78,34.33,15v0q-1.44,1.08-2.83,2.23v0l-0.76.66,0,0v0A75.27,75.27,0,0,0,17.32,32.73h-4a2.8,2.8,0,0,0-2.8,2.8V45A74.89,74.89,0,0,0,6.76,94.09v19.66a0.79,0.79,0,0,0,.07.32h-6a0.79,0.79,0,0,0-.79.79v4.57a0.79,0.79,0,0,0,.79.79H5.08v0.92H20.16a74.77,74.77,0,0,0,27.91,22.12,11.17,11.17,0,0,0,15.56,5.11A76.11,76.11,0,0,0,79.28,150a74.38,74.38,0,0,0,59.12-28.85h15.09v-0.92h4.28a0.79,0.79,0,0,0,.79-0.79v-4.57a0.79,0.79,0,0,0-.79-0.79h-5.93v-0.92a4.21,4.21,0,0,0-4.21-4.21h-1.49q0.43-.85.84-1.7l14.65-20.9a3.57,3.57,0,0,0,1.14.2A3.61,3.61,0,1,0,162.77,79.33ZM120.17,7.92A13.13,13.13,0,1,1,107,21.05,13.15,13.15,0,0,1,120.17,7.92ZM40.56,12.67A73.29,73.29,0,0,1,58,4.75h0.74V17.48H40.56V12.67Zm-3,2q0.79-.54,1.59-1.07v5.3h21V4.15l1.59-.41V19.65a0.79,0.79,0,0,1-.79.79H38.4a0.79,0.79,0,0,1-.79-0.79v-5Zm-6.1,4.7q1.39-1.19,2.83-2.31v6.71H65V3q1.41-.28,2.83-0.5V25.9H31.5V19.32ZM12.12,41.41V35.53a1.22,1.22,0,0,1,1.21-1.21H99.67a1.22,1.22,0,0,1,1.21,1.21V92.59H26.12V91.77A0.79,0.79,0,0,0,25.32,91H12.12V41.41Zm81,53.64H77.76a0.79,0.79,0,0,0-.79.79v4.78H31.1v-0.14a3.64,3.64,0,0,0-3.64-3.64H26.12V94.18h74.76v5.23a1.22,1.22,0,0,1-1.21,1.21H93.94V95.85A0.79,0.79,0,0,0,93.15,95.05Zm-9.68,12.84H94.66a1.71,1.71,0,0,1-1.51.91H83.08A3.25,3.25,0,0,0,83.46,107.89Zm-0.7-1.59a0.79,0.79,0,0,0-.79.79,1.71,1.71,0,0,1-1.71,1.71h0a1.71,1.71,0,0,1-1.71-1.71V96.64h13.8v9.66H82.77Zm-14.61,6.37H44.84L46,102.21H67Zm-25,.79H39.73a0.8,0.8,0,0,0-.57.24,0.77,0.77,0,0,0-.2.38H26a0.79,0.79,0,0,0,.07-0.32v-4h1.34a3.64,3.64,0,0,0,3.64-3.64v-4H44.42l-1.26,11.16A0.77,0.77,0,0,0,43.17,113.46Zm-14-11.25v4a1.69,1.69,0,0,1-1.69,1.69H26.12v-5.64h3Zm-3-1.59V98.79h1.34a1.69,1.69,0,0,1,1.69,1.69v0.14h-3ZM10.65,92.91a0.67,0.67,0,0,1,.67.67v5.29a0.67,0.67,0,0,0,1.34,0V93a0.66,0.66,0,0,1,.16-0.42h1A0.66,0.66,0,0,1,14,93v3.28a0.67,0.67,0,1,0,1.34,0v-3.7h9.18V113H8.35V92.57h0.3v1a0.67,0.67,0,0,0,1.34,0A0.67,0.67,0,0,1,10.65,92.91ZM5.87,75a72.83,72.83,0,0,1,4.66-25.75V91H7.64A73.35,73.35,0,0,1,5.87,75Zm52.36,73.64A10.06,10.06,0,0,1,49.78,144a74.09,74.09,0,0,0,12,3.95A10,10,0,0,1,58.23,148.63Zm21-.22a74.64,74.64,0,0,1-13.83-1.29,11.16,11.16,0,0,0,4-8.55v-2.2H68.3v2.2A10.05,10.05,0,0,1,64,146.83a72.53,72.53,0,0,1-15.27-5,10,10,0,0,1-.54-3.25V121.15H47v17.42a11.12,11.12,0,0,0,.31,2.6,73.17,73.17,0,0,1-25.14-20H136.37A72.78,72.78,0,0,1,79.28,148.41ZM151,115.66H157v3H1.59v-3H151ZM99.52,113.1c0-2.09,2.39-3.78,5.32-3.78s5.32,1.7,5.32,3.78a2.67,2.67,0,0,1-.09.65H99.61A2.68,2.68,0,0,1,99.52,113.1Zm48.1-2.57a2.62,2.62,0,0,1,2.62,2.62v0.92H121.94v-0.92a2.62,2.62,0,0,1,2.62-2.62h23.07Zm-1-6.41-3.38,4.82H124.56a4.21,4.21,0,0,0-4.21,4.21v0.92h-8.72a4.25,4.25,0,0,0,.12-1c0-3-3.1-5.37-6.91-5.37s-6.91,2.41-6.91,5.37a4.26,4.26,0,0,0,.12,1H74a0.77,0.77,0,0,0-.2-0.38,0.8,0.8,0,0,0-.57-0.24H69.83a0.77,0.77,0,0,0,0-.09l-1.26-11.16H77v4.89a3.3,3.3,0,0,0,3.29,3.3H93.15a3.3,3.3,0,0,0,3.3-3.3,0.79,0.79,0,0,0-.79-0.79H93.94v-4.09h5.73a2.8,2.8,0,0,0,2.8-2.8V35.53a2.8,2.8,0,0,0-2.8-2.8H19.25a73.6,73.6,0,0,1,10.66-12h0v6a0.79,0.79,0,0,0,.79.79H68.63a0.79,0.79,0,0,0,.79-0.79V2.27a72.83,72.83,0,0,1,42.16,6.85,14.71,14.71,0,1,0,22.39,17,73.14,73.14,0,0,1,18.14,39.81l-6.49-9.28a3.6,3.6,0,0,0-1.63-4.2h0l-1-.61a0.78,0.78,0,0,0-.37-0.85l-2.84-1.65,0.56-1-6-3.5-0.56,1-2.84-1.65a0.79,0.79,0,0,0-1.09.29l-3.27,5.63-13.82,7.81a0.79,0.79,0,0,0,0,1.38l25.8,15a0.79,0.79,0,0,0,1.19-.69L139.6,58.25l0.77,0.45a3.58,3.58,0,0,0,1.81.49,3.65,3.65,0,0,0,2.2-.74l8.13,11.63c0.11,1.63.18,3.27,0.18,4.93A73.18,73.18,0,0,1,146.66,104.13ZM128.17,50.41L130.75,46l10.34,6-2.58,4.45Zm9.9,21.79-23.4-13.58,12.4-7L138,58Zm4.12-19,1,0.58a2,2,0,0,1-2,3.5l-1-.58Zm17.75,31.94L150.39,98.8A74.75,74.75,0,0,0,154.28,75c0-.83,0-1.66-0.06-2.48l5.73,8.19A3.53,3.53,0,0,0,159.95,85.18Zm2.82-.21a2,2,0,1,1,2-2A2,2,0,0,1,162.77,85Zm-42.6-51.65a12.26,12.26,0,1,0-12.26-12.26A12.28,12.28,0,0,0,120.17,33.32Zm0-22.94A10.68,10.68,0,1,1,109.5,21.05,10.69,10.69,0,0,1,120.17,10.38Zm0,0.94a0.28,0.28,0,1,0-.28-0.28A0.29,0.29,0,0,0,120.17,11.32Zm-4.87,1.3a0.28,0.28,0,1,0-.28-0.49A0.28,0.28,0,0,0,115.3,12.62Zm-3.56,3.56a0.28,0.28,0,1,0-.39.1A0.29,0.29,0,0,0,111.74,16.19Zm-1.59,5.15a0.28,0.28,0,1,0-.28-0.28A0.28,0.28,0,0,0,110.15,21.34Zm1.2,4.48a0.28,0.28,0,1,0,.39.1A0.28,0.28,0,0,0,111.35,25.81Zm3.56,3.77a0.28,0.28,0,1,0,.39-0.1A0.28,0.28,0,0,0,114.92,29.58Zm5.25,1.2a0.28,0.28,0,1,0,.29.28A0.29,0.29,0,0,0,120.17,30.78Zm4.87-1.3a0.28,0.28,0,1,0,.39.1A0.28,0.28,0,0,0,125,29.48Zm3.56-3.56a0.28,0.28,0,1,0,.39-0.1A0.28,0.28,0,0,0,128.6,25.92Zm1.59-4.58a0.28,0.28,0,1,0-.28-0.29A0.28,0.28,0,0,0,130.19,21.34Zm-1.2-5a0.28,0.28,0,1,0-.39-0.1A0.29,0.29,0,0,0,129,16.29Zm-3.56-3.77a0.28,0.28,0,1,0-.39.1A0.28,0.28,0,0,0,125.43,12.52Zm-6.53,8.53a1.26,1.26,0,0,0,.93,1.21v4.35h0.69V22.26A1.25,1.25,0,0,0,121,22l0.33,0.33,0.19-.19-0.33-.33a1.25,1.25,0,0,0,.25-0.56h6.22V20.82H121.4a1.23,1.23,0,0,0-2-.75L115,15.69l-0.19.19,4.38,4.38A1.25,1.25,0,0,0,118.89,21.05ZM97.16,38H15.84V88.87H97.16V38Zm-2,4.74H80.39a0.5,0.5,0,0,0-.5.5v2.5a0.5,0.5,0,0,0,.5.5h14.8V63H80.39a0.5,0.5,0,0,0-.5.5V66a0.5,0.5,0,0,0,.5.5h14.8V86.9H17.81V46.29h8a0.5,0.5,0,0,0,.5-0.5v-2.5a0.5,0.5,0,0,0-.5-0.5h-8V40H95.19v2.78Zm-0.5,1v1.51H80.89V43.78H94.7ZM94.7,64v1.51H80.89V64H94.7ZM18.3,45.29V43.78h7v1.51h-7ZM82.83,71.44h9.93V70.65H82.83v0.79Zm0-1.72h9.93V68.93H82.83v0.79Z"/></svg>