<svg id="Layer_1" data-name="Layer 1" xmlns="http://www.w3.org/2000/svg" viewBox="0 0 166.26 150"><defs><style>.cls-1{fill:#676767;}</style></defs><title>services-web-design-icon</title><path class="cls-1" d="M116.87,27.62H49.4a0.5,0.5,0,0,0-.5.5V54a0.5,0.5,0,0,0,.5.5h67.47a0.5,0.5,0,0,0,.5-0.5V28.12A0.5,0.5,0,0,0,116.87,27.62Zm-0.5,25.89H49.89V28.61h66.48V53.51Zm-61.9-14.2-1.75,1.75,1.75,1.75v-3.5Zm57.32,0v3.5l1.75-1.75Zm-17-6.07H77V35H94.83V33.24Zm12,3H77v0.48h29.8V36.2Zm0,1.77H77v0.48h29.8V38ZM77,40.21H106.8V39.73H77v0.48ZM77,42h24.64V41.5H77V42Zm-17.66,7.4H75a0.5,0.5,0,0,0,.5-0.5V33.24a0.5,0.5,0,0,0-.5-0.5H59.39a0.5,0.5,0,0,0-.5.5V48.88A0.5,0.5,0,0,0,59.39,49.38Zm0.5-15.64H74.53V48.38H59.88V33.74ZM91.76,82.23H74.5a0.5,0.5,0,0,0-.5.5V93.51a0.5,0.5,0,0,0,.5.5H91.76a0.5,0.5,0,0,0,.5-0.5V82.72A0.5,0.5,0,0,0,91.76,82.23ZM91.26,93H75V83.22H91.26V93ZM82,86.77v2.7l2.34-1.35Zm14.32-2.93h8.63V82.72H96.28v1.11Zm0,1.47h17.26V84.83H96.28v0.48Zm0,1.47h17.26V86.3H96.28v0.48Zm0,1.47h17.26V87.77H96.28v0.48Zm0,1.47h17.26V89.24H96.28v0.48Zm4.31,1.47h8.63V90.71h-8.63v0.48Zm-47.87-.11H70V90.6H52.72v0.48Zm0,1.47H70V92.07H52.72v0.48Zm0,1.47H70V93.54H52.72V94Zm0,1.47h11V95h-11v0.48Zm8.53-11.65H70V82.72H61.25v1.11Zm0,1.47H70V84.83H61.25v0.48Zm5.29,1H61.25v0.48h5.29V86.3Zm-7,3.38a0.5,0.5,0,0,0,.5-0.5V82.72a0.5,0.5,0,0,0-.5-0.5H52.72a0.5,0.5,0,0,0-.5.5v6.45a0.5,0.5,0,0,0,.5.5h6.81Zm-6.32-6.45H59v5.46H53.22V83.22ZM69,21.95a0.5,0.5,0,0,0,.5-0.5V17.22a0.5,0.5,0,0,0-.5-0.5H64.77a0.5,0.5,0,0,0-.5.5v4.23a0.5,0.5,0,0,0,.5.5H69Zm-3.73-4.23h3.24V21H65.27V17.72Zm5.09,5H63.42V23h6.93V22.73Zm0,0.8H63.42v0.24h6.93V23.54Zm-1.69,1V24.34H65.11v0.24h3.56Zm11.16-2.63a0.5,0.5,0,0,0,.5-0.5V17.22a0.5,0.5,0,0,0-.5-0.5H75.6a0.5,0.5,0,0,0-.5.5v4.23a0.5,0.5,0,0,0,.5.5h4.23ZM76.1,17.72h3.24V21H76.1V17.72Zm5.08,5H74.25V23h6.93V22.73Zm0,0.8H74.25v0.24h6.93V23.54Zm-1.69,1V24.34H75.94v0.24H79.5Zm11.16-2.63a0.5,0.5,0,0,0,.5-0.5V17.22a0.5,0.5,0,0,0-.5-0.5H86.43a0.5,0.5,0,0,0-.5.5v4.23a0.5,0.5,0,0,0,.5.5h4.23Zm-3.73-4.23h3.23V21H86.93V17.72Zm5.08,5H85.08V23H92V22.73Zm0,0.8H85.08v0.24H92V23.54Zm-1.69,1V24.34H86.77v0.24h3.56Zm11.16-2.63a0.5,0.5,0,0,0,.5-0.5V17.22a0.5,0.5,0,0,0-.5-0.5H97.26a0.5,0.5,0,0,0-.5.5v4.23a0.5,0.5,0,0,0,.5.5h4.23Zm-3.73-4.23H101V21H97.76V17.72Zm5.09,5H95.91V23h6.94V22.73Zm0,0.8H95.91v0.24h6.94V23.54Zm-1.69,1V24.34H97.59v0.24h3.56ZM52.72,73.19H70V71.76H52.72v1.43Zm0,1.89H70V74.61H52.72v0.48Zm0,1.57H70V76.18H52.72v0.48Zm12.49,1.1H57.49v0.48h7.72V77.76ZM70,58H52.72a0.5,0.5,0,0,0-.5.5V69a0.5,0.5,0,0,0,.5.5H70a0.5,0.5,0,0,0,.5-0.5V58.49A0.5,0.5,0,0,0,70,58Zm-0.5,10.53H53.22V59H69.48v9.54Zm22.28,3.24H74.5v1.43H91.76V71.76ZM74.5,75.09H91.76V74.61H74.5v0.48Zm0,1.57H91.76V76.18H74.5v0.48ZM87,78.24V77.76H79.27v0.48H87ZM91.76,58H74.5a0.5,0.5,0,0,0-.5.5V69a0.5,0.5,0,0,0,.5.5H91.76a0.5,0.5,0,0,0,.5-0.5V58.49A0.5,0.5,0,0,0,91.76,58Zm-0.5,10.53H75V59H91.26v9.54Zm5,4.67h17.26V71.76H96.28v1.43Zm0,1.89h17.26V74.61H96.28v0.48Zm0,1.57h17.26V76.18H96.28v0.48Zm12.49,1.1h-7.72v0.48h7.72V77.76ZM113.54,58H96.28a0.5,0.5,0,0,0-.5.5V69a0.5,0.5,0,0,0,.5.5h17.26A0.5,0.5,0,0,0,114,69V58.49A0.5,0.5,0,0,0,113.54,58ZM113,68.53H96.78V59H113v9.54ZM52.72,14.18h60.82a0.5,0.5,0,0,0,.5-0.5V9a0.5,0.5,0,0,0-.5-0.5H52.72a0.5,0.5,0,0,0-.5.5v4.68A0.5,0.5,0,0,0,52.72,14.18Zm54-4.68H113v3.68H106.7V9.5Zm-53.48,0H105.7v3.68H53.22V9.5Zm1,2.13H59V11.06H54.23v0.57Zm6.27,0h4.76V11.06H60.49v0.57Zm6.27,0h4.76V11.06H66.76v0.57Zm6.27,0h4.76V11.06H73v0.57ZM8.79,74a2.69,2.69,0,1,0,2.69,2.69A2.69,2.69,0,0,0,8.79,74Zm0,3.72a1,1,0,1,1,1-1A1,1,0,0,1,8.79,77.67Zm156.64-9.89h-7A75.82,75.82,0,0,0,156,54.14h5.62a4.63,4.63,0,1,0,0-9.26h-8.85a75.72,75.72,0,0,0-7-12.87V27a3.58,3.58,0,0,0-3.58-3.58H139A75.62,75.62,0,0,0,121.35,9.12V0.8a0.8,0.8,0,0,0-.8-0.8H45.71a0.8,0.8,0,0,0-.8.8V9.12A75.59,75.59,0,0,0,27.25,23.4H24A3.58,3.58,0,0,0,20.47,27v5a75.72,75.72,0,0,0-7,12.88H13.31a0.79,0.79,0,0,0-.15,0H13.07L0.59,48.72a0.83,0.83,0,0,0,0,1.59l9.89,3A75.63,75.63,0,0,0,7.79,67.78h-7a0.83,0.83,0,0,0-.83.83V84.68a0.83,0.83,0,0,0,.83.83H8.34a75.62,75.62,0,0,0,149.59,0h7.51a0.83,0.83,0,0,0,.83-0.83V68.61A0.83,0.83,0,0,0,165.43,67.78Zm-7.71-21.23h3.92a3,3,0,0,1,0,5.93h-3.92V46.55Zm-4.41,0h2.75v5.93h-2.75V46.55Zm1,7.6a74.12,74.12,0,0,1,2.5,13.63h-11V54.14h8.51ZM145.79,35A74,74,0,0,1,151,44.88h-5.18V35Zm-24.44-24A73.89,73.89,0,0,1,136.74,23.4H121.35V11.07Zm0,14h20.86a1.89,1.89,0,0,1,1.35.56h0a1.9,1.9,0,0,1,.56,1.35v17.9h-4.52V30.42a0.83,0.83,0,0,0-.83-0.83H121.35V25.07Zm0,6.18h16.59V44.88H121.35V31.25Zm0,15.3h30.29v5.93H121.35V46.55Zm22.78,7.6V67.78h-4.52V54.14h4.52Zm-22.78,0h16.59V67.78H121.35V54.14Zm0,31.37h16.59V99.14H121.35V85.51ZM46.5,1.59h73.26V5H46.5V1.59ZM46.5,6h73.26V99.14H46.5V6Zm-1.59,5.1V23.4H29.51A73.86,73.86,0,0,1,44.91,11.07ZM22.13,32.26V27A1.92,1.92,0,0,1,24,25.07H44.91v4.52H27.48a0.83,0.83,0,0,0-.83.83V44.88H22.13V32.26Zm22.78-1V44.88H28.32V31.25H44.91ZM20.47,35v9.84H15.28A74,74,0,0,1,20.47,35ZM14.14,47.62c0.14-.36.3-0.71,0.45-1.07H44.91v5.93H14.14V47.62Zm30.77,6.52V67.78H28.32V54.14H44.91Zm-18.26,0V67.78H22.13V54.14h4.52ZM4.92,49.89l-1.23-.38,1.23-.38v0.75Zm1.59,0.48V48.65l6-1.82v5.35Zm5.54,3.42,1,0.31a0.82,0.82,0,0,0,.24,0h7.16V67.78h-11A73.92,73.92,0,0,1,12.05,53.8Zm8.42,52.36h0v7.44A73.52,73.52,0,0,1,10,85.51H20.47v20.65Zm1.46-22.31H19.64V82.33H19.2v1.52H16.91V83.5H16.62v0.34H14.33V82.33H13.89v1.52H11.6V83.5H11.31v0.34H9V82.33H8.58v1.52H6.29V83.5H6v0.34H3.71V82.33H3.27v1.52H1.66V69.44H44.91V83.85H43.46V83.5H43.16v0.34H40.88V82.33H40.44v1.52H38.15V83.5H37.86v0.34H35.57V82.33H35.13v1.52H32.84V83.5H32.55v0.34H30.25V82.33H29.81v1.52H27.53V83.5H27.24v0.34H24.95V82.33H24.51v1.52H22.22V83.5H21.93v0.34Zm23,1.66V99.14H28.32V85.51H44.91Zm38.22,62.83a73.9,73.9,0,0,1-59.75-30.42A3.61,3.61,0,0,0,24,118H66.89l-1.76,15.56a0.83,0.83,0,0,0,.83.92h34.35a0.83,0.83,0,0,0,.83-0.92L99.37,118h42.84a3.61,3.61,0,0,0,.66-0.07A73.9,73.9,0,0,1,83.13,148.34ZM68.56,118H97.7l1.68,14.83H66.88Zm75.57-3.58a1.92,1.92,0,0,1-1.92,1.92H24a1.92,1.92,0,0,1-1.92-1.92V107h122v7.41Zm0-9.08h-122V85.51h4.52V100a0.83,0.83,0,0,0,.83.83H138.78a0.83,0.83,0,0,0,.83-0.83V85.51h4.52v19.82Zm1.66,8.27V85.51h10.45A73.52,73.52,0,0,1,145.79,113.6ZM164.6,83.85H163V82.33h-0.44v1.52h-2.29V83.5H160v0.34h-2.29V82.33h-0.44v1.52H155V83.5h-0.29v0.34h-2.29V82.33h-0.44v1.52h-2.29V83.5h-0.29v0.34h-2.29V82.33h-0.44v1.52h-2.29V83.5H144v0.34h-2.29V82.33h-0.44v1.52H139V83.5h-0.29v0.34h-2.28V82.33H136v1.52h-2.29V83.5h-0.29v0.34h-2.29V82.33H130.7v1.52h-2.29V83.5h-0.29v0.34h-2.29V82.33h-0.44v1.52H123.1V83.5h-0.29v0.34h-1.45V69.44H164.6V83.85Z"/></svg>