<?xml version="1.0" encoding="utf-8"?>
<!-- Generator: Adobe Illustrator 16.0.0, SVG Export Plug-In . SVG Version: 6.00 Build 0)  -->
<!DOCTYPE svg PUBLIC "-//W3C//DTD SVG 1.1//EN" "http://www.w3.org/Graphics/SVG/1.1/DTD/svg11.dtd">
<svg version="1.1" xmlns="http://www.w3.org/2000/svg" xmlns:xlink="http://www.w3.org/1999/xlink" x="0px" y="0px" width="175px"
	 height="175px" viewBox="0 0 175 175" enable-background="new 0 0 175 175" xml:space="preserve">
<g id="Layer_1">
	<path fill="#805B88" d="M87.294,175.057C39.16,175.057,0,135.896,0,87.763C0,39.629,39.16,0.469,87.294,0.469
		c48.133,0,87.293,39.16,87.293,87.294C174.587,135.896,135.427,175.057,87.294,175.057 M87.294,7.902
		c-44.036,0-79.86,35.825-79.86,79.861c0,44.035,35.824,79.86,79.86,79.86c44.035,0,79.86-35.825,79.86-79.86
		C167.154,43.727,131.329,7.902,87.294,7.902"/>
</g>
<g id="Layer_2">
	<path fill="#805B88" d="M139.294,49.035H33.705c-0.693,0-1.259,0.566-1.259,1.259v62.236c0,0.695,0.565,1.262,1.259,1.262h105.589
		c0.692,0,1.26-0.566,1.26-1.262V50.294C140.554,49.602,139.986,49.035,139.294,49.035z M134.052,107.287H38.948v-51.75h95.104
		V107.287z"/>
	<path fill="#805B88" d="M103.141,127.396v-4.704c0-1.288-1.055-2.341-2.341-2.341H72.2c-1.287,0-2.34,1.053-2.34,2.341v4.704
		H103.141z"/>
	<rect x="79.498" y="113.226" fill="#805B88" width="14.004" height="10.063"/>
</g>
</svg>
